<?xml version="1.0" encoding="UTF-8" standalone="no"?>
<!DOCTYPE svg PUBLIC "-//W3C//DTD SVG 1.1//EN" "http://www.w3.org/Graphics/SVG/1.1/DTD/svg11.dtd">
<svg xmlns="http://www.w3.org/2000/svg" version="1.1" viewBox="0.00 0.00 225.00 161.00">
<g stroke-width="2.00" fill="none" stroke-linecap="butt">
<path stroke="#88afd6" vector-effect="non-scaling-stroke" d="
  M 95.51 39.78
  L 82.89 39.76
  Q 82.21 39.76 82.47 40.38
  L 83.60 43.01
  Q 83.83 43.55 84.42 43.55
  L 99.07 43.53
  A 0.90 0.89 71.1 0 1 99.78 43.88
  L 106.00 51.90
  A 0.53 0.53 0.0 0 1 105.58 52.76
  L 87.92 52.72
  Q 87.18 52.72 87.53 53.37
  L 89.00 56.05
  A 0.88 0.85 75.0 0 0 89.75 56.50
  L 107.53 56.50
  Q 108.12 56.50 108.33 55.95
  C 113.02 43.43 93.91 19.62 85.58 11.10
  Q 85.10 10.61 84.83 11.25
  L 79.39 24.60
  Q 79.20 25.06 79.65 25.27
  Q 89.57 30.06 95.85 39.13
  Q 96.30 39.78 95.51 39.78"
/>
<path stroke="#88afd6" vector-effect="non-scaling-stroke" d="
  M 148.97 92.22
  Q 148.84 71.72 148.98 51.22
  C 149.01 46.50 148.78 40.67 150.31 36.85
  Q 152.06 32.49 158.30 30.37
  Q 159.47 29.97 158.23 29.97
  L 107.00 29.95
  Q 106.12 29.95 106.76 30.56
  C 114.30 37.77 116.31 45.36 116.34 56.29
  Q 116.41 80.25 116.40 104.21
  Q 116.40 109.92 117.54 114.15
  Q 122.52 132.60 136.54 145.18
  Q 143.51 151.44 153.36 150.83
  Q 153.93 150.79 153.52 150.39
  C 148.20 145.26 148.91 140.93 148.91 132.44
  Q 148.92 122.99 148.94 113.48
  C 148.96 104.15 151.83 97.15 161.18 94.38
  Q 163.50 93.70 170.45 93.58
  Q 181.84 93.38 191.38 89.44
  C 217.69 78.56 218.81 47.35 198.13 30.27
  A 1.35 1.32 64.0 0 0 197.29 29.97
  L 167.50 29.93
  Q 161.85 29.92 167.35 30.76
  C 178.74 32.51 189.75 42.65 191.01 54.49
  C 192.03 64.04 188.61 73.10 182.14 80.31
  Q 169.68 94.21 149.54 92.82
  Q 148.98 92.78 148.97 92.22"
/>
<path stroke="#88afd6" vector-effect="non-scaling-stroke" d="
  M 75.19 121.96
  Q 63.59 122.06 52.01 122.02
  Q 48.16 122.01 46.18 125.19
  Q 45.84 125.75 46.50 125.75
  L 77.09 125.75
  A 0.95 0.95 0.0 0 1 77.96 126.32
  L 81.36 134.23
  Q 81.60 134.80 80.99 134.79
  L 43.50 134.78
  Q 43.04 134.78 42.92 135.22
  C 42.24 137.95 44.09 138.53 46.40 138.52
  Q 63.95 138.48 81.50 138.51
  Q 81.99 138.51 82.10 138.99
  Q 83.79 146.73 77.30 150.54
  A 0.16 0.16 0.0 0 0 77.38 150.84
  L 134.22 150.85
  Q 134.99 150.85 134.30 150.51
  Q 125.53 146.16 121.02 136.97
  Q 115.03 124.77 99.56 88.04
  Q 99.37 87.60 99.74 87.29
  Q 116.22 73.21 112.51 51.33
  A 0.10 0.10 0.0 0 0 112.31 51.31
  Q 107.65 66.49 94.89 76.06
  Q 94.37 76.45 94.10 75.85
  L 91.51 70.03
  A 0.51 0.50 69.2 0 1 91.81 69.35
  Q 97.00 67.63 101.37 64.36
  Q 103.79 62.55 100.82 63.12
  Q 95.15 64.22 89.42 63.95
  A 0.93 0.92 -10.5 0 1 88.60 63.39
  L 75.16 32.65
  A 0.39 0.38 -43.0 0 0 74.46 32.63
  Q 53.83 72.74 33.91 113.20
  Q 31.28 118.54 34.61 113.75
  C 39.95 106.03 58.64 86.83 66.56 101.94
  Q 69.01 106.62 75.55 121.42
  Q 75.78 121.96 75.19 121.96"
/>
<path stroke="#88afd6" vector-effect="non-scaling-stroke" d="
  M 155.78 43.32
  L 178.74 43.80
  A 0.24 0.24 0.0 0 0 178.98 43.57
  L 178.99 43.44
  A 3.71 3.39 1.2 0 0 175.35 39.97
  L 159.33 39.63
  A 3.71 3.39 1.2 0 0 155.55 42.94
  L 155.55 43.07
  A 0.24 0.24 0.0 0 0 155.78 43.32"
/>
<path stroke="#88afd6" vector-effect="non-scaling-stroke" d="
  M 183.90 53.10
  A 0.39 0.39 0.0 0 0 183.51 52.71
  L 156.31 52.71
  A 0.39 0.39 0.0 0 0 155.92 53.10
  L 155.92 56.08
  A 0.39 0.39 0.0 0 0 156.31 56.47
  L 183.51 56.47
  A 0.39 0.39 0.0 0 0 183.90 56.08
  L 183.90 53.10"
/>
<path stroke="#88afd6" vector-effect="non-scaling-stroke" d="
  M 155.86 66.29
  L 155.86 68.61
  A 0.66 0.66 0.0 0 0 156.53 69.26
  L 180.20 69.18
  A 2.47 1.67 -0.2 0 0 182.66 67.50
  L 182.66 67.20
  A 2.47 1.67 -0.2 0 0 180.18 65.54
  L 156.51 65.62
  A 0.66 0.66 0.0 0 0 155.86 66.29"
/>
<path stroke="#88afd6" vector-effect="non-scaling-stroke" d="
  M 156.42 81.84
  C 162.29 82.22 172.56 83.22 175.82 78.97
  Q 176.25 78.41 175.55 78.40
  L 156.46 78.33
  Q 155.99 78.33 155.98 78.79
  L 155.88 81.25
  Q 155.86 81.81 156.42 81.84"
/>
<path stroke="#88afd6" vector-effect="non-scaling-stroke" d="
  M 42.94 146.35
  C 31.53 136.28 39.74 121.12 50.73 115.41
  Q 57.47 111.90 64.78 110.03
  A 0.21 0.21 0.0 0 0 64.73 109.62
  Q 43.16 109.93 27.45 124.69
  Q 16.91 134.59 11.76 150.42
  Q 11.63 150.82 12.05 150.82
  L 49.54 150.87
  Q 50.92 150.87 49.66 150.30
  C 47.19 149.18 44.82 148.00 42.94 146.35"
/>
</g>
<path fill="#ffffff" d="
  M 0.00 0.00
  L 225.00 0.00
  L 225.00 161.00
  L 0.00 161.00
  L 0.00 0.00
  Z
  M 95.51 39.78
  L 82.89 39.76
  Q 82.21 39.76 82.47 40.38
  L 83.60 43.01
  Q 83.83 43.55 84.42 43.55
  L 99.07 43.53
  A 0.90 0.89 71.1 0 1 99.78 43.88
  L 106.00 51.90
  A 0.53 0.53 0.0 0 1 105.58 52.76
  L 87.92 52.72
  Q 87.18 52.72 87.53 53.37
  L 89.00 56.05
  A 0.88 0.85 75.0 0 0 89.75 56.50
  L 107.53 56.50
  Q 108.12 56.50 108.33 55.95
  C 113.02 43.43 93.91 19.62 85.58 11.10
  Q 85.10 10.61 84.83 11.25
  L 79.39 24.60
  Q 79.20 25.06 79.65 25.27
  Q 89.57 30.06 95.85 39.13
  Q 96.30 39.78 95.51 39.78
  Z
  M 148.97 92.22
  Q 148.84 71.72 148.98 51.22
  C 149.01 46.50 148.78 40.67 150.31 36.85
  Q 152.06 32.49 158.30 30.37
  Q 159.47 29.97 158.23 29.97
  L 107.00 29.95
  Q 106.12 29.95 106.76 30.56
  C 114.30 37.77 116.31 45.36 116.34 56.29
  Q 116.41 80.25 116.40 104.21
  Q 116.40 109.92 117.54 114.15
  Q 122.52 132.60 136.54 145.18
  Q 143.51 151.44 153.36 150.83
  Q 153.93 150.79 153.52 150.39
  C 148.20 145.26 148.91 140.93 148.91 132.44
  Q 148.92 122.99 148.94 113.48
  C 148.96 104.15 151.83 97.15 161.18 94.38
  Q 163.50 93.70 170.45 93.58
  Q 181.84 93.38 191.38 89.44
  C 217.69 78.56 218.81 47.35 198.13 30.27
  A 1.35 1.32 64.0 0 0 197.29 29.97
  L 167.50 29.93
  Q 161.85 29.92 167.35 30.76
  C 178.74 32.51 189.75 42.65 191.01 54.49
  C 192.03 64.04 188.61 73.10 182.14 80.31
  Q 169.68 94.21 149.54 92.82
  Q 148.98 92.78 148.97 92.22
  Z
  M 75.19 121.96
  Q 63.59 122.06 52.01 122.02
  Q 48.16 122.01 46.18 125.19
  Q 45.84 125.75 46.50 125.75
  L 77.09 125.75
  A 0.95 0.95 0.0 0 1 77.96 126.32
  L 81.36 134.23
  Q 81.60 134.80 80.99 134.79
  L 43.50 134.78
  Q 43.04 134.78 42.92 135.22
  C 42.24 137.95 44.09 138.53 46.40 138.52
  Q 63.95 138.48 81.50 138.51
  Q 81.99 138.51 82.10 138.99
  Q 83.79 146.73 77.30 150.54
  A 0.16 0.16 0.0 0 0 77.38 150.84
  L 134.22 150.85
  Q 134.99 150.85 134.30 150.51
  Q 125.53 146.16 121.02 136.97
  Q 115.03 124.77 99.56 88.04
  Q 99.37 87.60 99.74 87.29
  Q 116.22 73.21 112.51 51.33
  A 0.10 0.10 0.0 0 0 112.31 51.31
  Q 107.65 66.49 94.89 76.06
  Q 94.37 76.45 94.10 75.85
  L 91.51 70.03
  A 0.51 0.50 69.2 0 1 91.81 69.35
  Q 97.00 67.63 101.37 64.36
  Q 103.79 62.55 100.82 63.12
  Q 95.15 64.22 89.42 63.95
  A 0.93 0.92 -10.5 0 1 88.60 63.39
  L 75.16 32.65
  A 0.39 0.38 -43.0 0 0 74.46 32.63
  Q 53.83 72.74 33.91 113.20
  Q 31.28 118.54 34.61 113.75
  C 39.95 106.03 58.64 86.83 66.56 101.94
  Q 69.01 106.62 75.55 121.42
  Q 75.78 121.96 75.19 121.96
  Z
  M 155.78 43.32
  L 178.74 43.80
  A 0.24 0.24 0.0 0 0 178.98 43.57
  L 178.99 43.44
  A 3.71 3.39 1.2 0 0 175.35 39.97
  L 159.33 39.63
  A 3.71 3.39 1.2 0 0 155.55 42.94
  L 155.55 43.07
  A 0.24 0.24 0.0 0 0 155.78 43.32
  Z
  M 183.90 53.10
  A 0.39 0.39 0.0 0 0 183.51 52.71
  L 156.31 52.71
  A 0.39 0.39 0.0 0 0 155.92 53.10
  L 155.92 56.08
  A 0.39 0.39 0.0 0 0 156.31 56.47
  L 183.51 56.47
  A 0.39 0.39 0.0 0 0 183.90 56.08
  L 183.90 53.10
  Z
  M 155.86 66.29
  L 155.86 68.61
  A 0.66 0.66 0.0 0 0 156.53 69.26
  L 180.20 69.18
  A 2.47 1.67 -0.2 0 0 182.66 67.50
  L 182.66 67.20
  A 2.47 1.67 -0.2 0 0 180.18 65.54
  L 156.51 65.62
  A 0.66 0.66 0.0 0 0 155.86 66.29
  Z
  M 156.42 81.84
  C 162.29 82.22 172.56 83.22 175.82 78.97
  Q 176.25 78.41 175.55 78.40
  L 156.46 78.33
  Q 155.99 78.33 155.98 78.79
  L 155.88 81.25
  Q 155.86 81.81 156.42 81.84
  Z
  M 42.94 146.35
  C 31.53 136.28 39.74 121.12 50.73 115.41
  Q 57.47 111.90 64.78 110.03
  A 0.21 0.21 0.0 0 0 64.73 109.62
  Q 43.16 109.93 27.45 124.69
  Q 16.91 134.59 11.76 150.42
  Q 11.63 150.82 12.05 150.82
  L 49.54 150.87
  Q 50.92 150.87 49.66 150.30
  C 47.19 149.18 44.82 148.00 42.94 146.35
  Z"
/>
<path fill="#105fac" d="
  M 95.85 39.13
  Q 89.57 30.06 79.65 25.27
  Q 79.20 25.06 79.39 24.60
  L 84.83 11.25
  Q 85.10 10.61 85.58 11.10
  C 93.91 19.62 113.02 43.43 108.33 55.95
  Q 108.12 56.50 107.53 56.50
  L 89.75 56.50
  A 0.88 0.85 75.0 0 1 89.00 56.05
  L 87.53 53.37
  Q 87.18 52.72 87.92 52.72
  L 105.58 52.76
  A 0.53 0.53 0.0 0 0 106.00 51.90
  L 99.78 43.88
  A 0.90 0.89 71.1 0 0 99.07 43.53
  L 84.42 43.55
  Q 83.83 43.55 83.60 43.01
  L 82.47 40.38
  Q 82.21 39.76 82.89 39.76
  L 95.51 39.78
  Q 96.30 39.78 95.85 39.13
  Z"
/>
<path fill="#105fac" d="
  M 149.54 92.82
  Q 169.68 94.21 182.14 80.31
  C 188.61 73.10 192.03 64.04 191.01 54.49
  C 189.75 42.65 178.74 32.51 167.35 30.76
  Q 161.85 29.92 167.50 29.93
  L 197.29 29.97
  A 1.35 1.32 64.0 0 1 198.13 30.27
  C 218.81 47.35 217.69 78.56 191.38 89.44
  Q 181.84 93.38 170.45 93.58
  Q 163.50 93.70 161.18 94.38
  C 151.83 97.15 148.96 104.15 148.94 113.48
  Q 148.92 122.99 148.91 132.44
  C 148.91 140.93 148.20 145.26 153.52 150.39
  Q 153.93 150.79 153.36 150.83
  Q 143.51 151.44 136.54 145.18
  Q 122.52 132.60 117.54 114.15
  Q 116.40 109.92 116.40 104.21
  Q 116.41 80.25 116.34 56.29
  C 116.31 45.36 114.30 37.77 106.76 30.56
  Q 106.12 29.95 107.00 29.95
  L 158.23 29.97
  Q 159.47 29.97 158.30 30.37
  Q 152.06 32.49 150.31 36.85
  C 148.78 40.67 149.01 46.50 148.98 51.22
  Q 148.84 71.72 148.97 92.22
  Q 148.98 92.78 149.54 92.82
  Z"
/>
<path fill="#105fac" d="
  M 75.55 121.42
  Q 69.01 106.62 66.56 101.94
  C 58.64 86.83 39.95 106.03 34.61 113.75
  Q 31.28 118.54 33.91 113.20
  Q 53.83 72.74 74.46 32.63
  A 0.39 0.38 -43.0 0 1 75.16 32.65
  L 88.60 63.39
  A 0.93 0.92 -10.5 0 0 89.42 63.95
  Q 95.15 64.22 100.82 63.12
  Q 103.79 62.55 101.37 64.36
  Q 97.00 67.63 91.81 69.35
  A 0.51 0.50 69.2 0 0 91.51 70.03
  L 94.10 75.85
  Q 94.37 76.45 94.89 76.06
  Q 107.65 66.49 112.31 51.31
  A 0.10 0.10 0.0 0 1 112.51 51.33
  Q 116.22 73.21 99.74 87.29
  Q 99.37 87.60 99.56 88.04
  Q 115.03 124.77 121.02 136.97
  Q 125.53 146.16 134.30 150.51
  Q 134.99 150.85 134.22 150.85
  L 77.38 150.84
  A 0.16 0.16 0.0 0 1 77.30 150.54
  Q 83.79 146.73 82.10 138.99
  Q 81.99 138.51 81.50 138.51
  Q 63.95 138.48 46.40 138.52
  C 44.09 138.53 42.24 137.95 42.92 135.22
  Q 43.04 134.78 43.50 134.78
  L 80.99 134.79
  Q 81.60 134.80 81.36 134.23
  L 77.96 126.32
  A 0.95 0.95 0.0 0 0 77.09 125.75
  L 46.50 125.75
  Q 45.84 125.75 46.18 125.19
  Q 48.16 122.01 52.01 122.02
  Q 63.59 122.06 75.19 121.96
  Q 75.78 121.96 75.55 121.42
  Z"
/>
<path fill="#105fac" d="
  M 155.78 43.32
  A 0.24 0.24 0.0 0 1 155.55 43.07
  L 155.55 42.94
  A 3.71 3.39 1.2 0 1 159.33 39.63
  L 175.35 39.97
  A 3.71 3.39 1.2 0 1 178.99 43.44
  L 178.98 43.57
  A 0.24 0.24 0.0 0 1 178.74 43.80
  L 155.78 43.32
  Z"
/>
<rect fill="#105fac" x="155.92" y="52.71" width="27.98" height="3.76" rx="0.39"/>
<path fill="#105fac" d="
  M 155.86 66.29
  A 0.66 0.66 0.0 0 1 156.51 65.62
  L 180.18 65.54
  A 2.47 1.67 -0.2 0 1 182.66 67.20
  L 182.66 67.50
  A 2.47 1.67 -0.2 0 1 180.20 69.18
  L 156.53 69.26
  A 0.66 0.66 0.0 0 1 155.86 68.61
  L 155.86 66.29
  Z"
/>
<path fill="#105fac" d="
  M 175.82 78.97
  C 172.56 83.22 162.29 82.22 156.42 81.84
  Q 155.86 81.81 155.88 81.25
  L 155.98 78.79
  Q 155.99 78.33 156.46 78.33
  L 175.55 78.40
  Q 176.25 78.41 175.82 78.97
  Z"
/>
<path fill="#105fac" d="
  M 50.73 115.41
  C 39.74 121.12 31.53 136.28 42.94 146.35
  C 44.82 148.00 47.19 149.18 49.66 150.30
  Q 50.92 150.87 49.54 150.87
  L 12.05 150.82
  Q 11.63 150.82 11.76 150.42
  Q 16.91 134.59 27.45 124.69
  Q 43.16 109.93 64.73 109.62
  A 0.21 0.21 0.0 0 1 64.78 110.03
  Q 57.47 111.90 50.73 115.41
  Z"
/>
</svg>
