<?xml version="1.0" encoding="UTF-8" standalone="no"?>
<!DOCTYPE svg PUBLIC "-//W3C//DTD SVG 1.1//EN" "http://www.w3.org/Graphics/SVG/1.1/DTD/svg11.dtd">
<svg xmlns="http://www.w3.org/2000/svg" version="1.1" viewBox="0.00 0.00 1241.00 1033.00">
<g stroke-width="2.00" fill="none" stroke-linecap="butt">
<path stroke="#80aad3" vector-effect="non-scaling-stroke" d="
  M 831.54 197.74
  A 0.32 0.32 0.0 0 0 831.98 197.45
  L 832.06 194.36
  Q 832.07 193.85 831.63 193.58
  Q 724.16 127.98 616.72 62.33
  Q 611.65 59.23 606.53 60.01
  Q 605.72 60.13 606.40 60.59
  Q 607.37 61.25 609.29 62.42
  Q 718.82 129.27 828.35 196.13
  Q 829.77 197.00 831.54 197.74"
/>
<path stroke="#80aad3" vector-effect="non-scaling-stroke" d="
  M 658.97 64.84
  Q 656.30 63.96 653.85 63.56
  Q 652.54 63.35 653.67 64.04
  L 705.54 95.71
  A 0.44 0.44 0.0 0 0 706.14 95.09
  C 703.71 91.35 701.30 88.53 697.27 86.07
  Q 682.75 77.18 668.23 68.30
  C 665.67 66.73 661.14 65.56 658.97 64.84"
/>
<path stroke="#80aad3" vector-effect="non-scaling-stroke" d="
  M 1076.68 371.49
  Q 1075.28 367.60 1072.56 365.94
  Q 827.25 216.36 582.03 66.65
  Q 579.13 64.88 576.58 67.31
  Q 576.20 67.66 576.64 67.94
  L 1075.44 372.50
  Q 1077.50 373.76 1076.68 371.49"
/>
<path stroke="#80aad3" vector-effect="non-scaling-stroke" d="
  M 739.83 188.45
  L 559.37 78.27
  Q 558.76 77.90 558.22 78.36
  L 556.21 80.10
  A 0.55 0.55 0.0 0 0 556.29 80.99
  Q 644.32 134.71 732.33 188.47
  C 735.10 190.17 737.12 190.11 739.83 188.62
  A 0.10 0.10 0.0 0 0 739.83 188.45"
/>
<path stroke="#80aad3" vector-effect="non-scaling-stroke" d="
  M 545.72 99.87
  C 595.75 130.89 646.17 161.34 696.44 191.99
  C 699.95 194.13 702.24 195.73 705.62 194.77
  A 0.88 0.88 0.0 0 0 705.84 193.18
  Q 626.50 144.70 547.57 96.54
  Q 546.46 95.86 545.78 96.11
  Q 544.80 96.47 544.78 98.16
  A 1.99 1.99 0.0 0 0 545.72 99.87"
/>
<path stroke="#80aad3" vector-effect="non-scaling-stroke" d="
  M 797.19 124.89
  C 789.48 116.00 777.52 107.34 765.59 106.33
  Q 764.47 106.23 765.43 106.81
  L 796.47 125.73
  A 0.56 0.56 0.0 0 0 797.19 124.89"
/>
<path stroke="#80aad3" vector-effect="non-scaling-stroke" d="
  M 830.79 171.42
  C 828.64 167.21 826.77 165.13 822.49 162.52
  Q 780.05 136.62 737.61 110.70
  C 733.50 108.19 730.23 107.59 725.66 107.45
  Q 724.92 107.42 725.55 107.81
  Q 776.16 138.95 826.81 169.99
  Q 828.65 171.12 830.60 171.65
  Q 830.96 171.74 830.79 171.42"
/>
<path stroke="#80aad3" vector-effect="non-scaling-stroke" d="
  M 670.10 201.41
  C 672.21 202.70 674.03 203.60 676.37 201.90
  Q 677.34 201.21 676.32 200.59
  L 541.25 118.15
  Q 540.62 117.76 540.27 118.41
  L 539.03 120.67
  Q 538.74 121.19 539.25 121.50
  Q 604.68 161.45 670.10 201.41"
/>
<path stroke="#80aad3" vector-effect="non-scaling-stroke" d="
  M 519.64 130.61
  C 517.01 129.02 515.24 128.85 512.56 130.15
  Q 512.14 130.36 512.54 130.60
  Q 578.07 170.72 643.68 210.72
  C 645.65 211.93 647.60 211.86 649.45 210.73
  Q 650.29 210.22 649.46 209.71
  Q 584.41 169.76 519.64 130.61"
/>
<path stroke="#80aad3" vector-effect="non-scaling-stroke" d="
  M 498.91 143.18
  A 1.93 1.92 23.5 0 0 496.06 144.30
  C 495.55 146.08 497.50 146.94 498.81 147.74
  Q 558.31 184.07 617.77 220.47
  Q 619.75 221.68 622.17 222.01
  A 1.57 1.57 0.0 0 0 623.20 219.12
  L 498.91 143.18"
/>
<path stroke="#80aad3" vector-effect="non-scaling-stroke" d="
  M 488.17 165.48
  A 1.21 1.19 28.2 0 0 488.64 167.00
  Q 542.30 199.72 596.24 232.79
  Q 598.46 234.15 600.63 232.73
  A 0.92 0.91 54.6 0 0 600.85 231.40
  Q 599.74 229.96 598.65 229.30
  Q 545.97 197.44 493.44 165.33
  Q 491.68 164.25 489.75 163.44
  Q 489.20 163.20 488.95 163.75
  L 488.17 165.48"
/>
<path stroke="#80aad3" vector-effect="non-scaling-stroke" d="
  M 423.81 199.42
  C 414.53 193.83 405.17 187.69 396.44 182.65
  C 393.07 180.70 390.04 179.86 386.39 179.96
  A 0.45 0.45 0.0 0 0 386.17 180.79
  Q 463.85 228.28 541.42 275.53
  Q 542.65 276.28 543.82 274.62
  Q 544.82 273.19 543.33 272.27
  Q 484.05 235.75 423.81 199.42"
/>
<path stroke="#80aad3" vector-effect="non-scaling-stroke" d="
  M 579.62 243.44
  L 484.29 185.19
  Q 483.79 184.89 483.30 185.19
  Q 481.82 186.09 481.92 187.88
  Q 481.95 188.39 482.39 188.66
  Q 527.37 216.13 572.36 243.55
  C 575.22 245.29 577.07 246.75 579.63 245.15
  A 1.01 1.00 44.7 0 0 579.62 243.44"
/>
<path stroke="#80aad3" vector-effect="non-scaling-stroke" d="
  M 1066.53 290.00
  C 1065.26 287.66 1065.05 285.21 1063.50 284.27
  Q 986.93 237.44 910.38 190.59
  C 905.66 187.70 901.74 185.13 896.46 186.11
  Q 895.58 186.27 896.35 186.74
  L 1066.36 290.57
  Q 1066.76 290.81 1066.66 290.36
  Q 1066.62 290.17 1066.53 290.00"
/>
<path stroke="#80aad3" vector-effect="non-scaling-stroke" d="
  M 939.55 187.66
  L 980.33 212.55
  Q 981.00 212.96 980.81 212.20
  L 979.82 208.07
  Q 979.71 207.61 979.31 207.36
  Q 962.99 197.38 946.63 187.44
  C 944.06 185.88 942.00 185.46 939.54 187.13
  Q 939.13 187.41 939.55 187.66"
/>
<path stroke="#80aad3" vector-effect="non-scaling-stroke" d="
  M 279.02 188.12
  L 277.78 190.15
  A 0.89 0.89 0.0 0 0 278.07 191.37
  L 504.21 329.41
  A 4.51 1.95 31.4 0 0 509.08 330.10
  L 509.21 329.87
  A 4.51 1.95 31.4 0 0 506.38 325.86
  L 280.24 187.82
  A 0.89 0.89 0.0 0 0 279.02 188.12"
/>
<path stroke="#80aad3" vector-effect="non-scaling-stroke" d="
  M 452.17 246.59
  Q 486.94 267.80 521.57 289.23
  C 523.75 290.58 527.44 293.13 529.79 290.87
  A 1.02 1.01 38.9 0 0 529.61 289.28
  Q 449.19 240.15 368.52 190.92
  C 367.07 190.04 364.62 189.37 363.60 190.82
  A 1.34 1.34 0.0 0 0 363.99 192.73
  Q 408.59 219.98 452.17 246.59"
/>
<path stroke="#80aad3" vector-effect="non-scaling-stroke" d="
  M 1075.9490 319.2195
  A 1.67 1.67 0.0 0 0 1075.3937 316.9240
  L 879.0087 197.0501
  A 1.67 1.67 0.0 0 0 876.7132 197.6054
  L 876.4110 198.1005
  A 1.67 1.67 0.0 0 0 876.9663 200.3960
  L 1073.3513 320.2699
  A 1.67 1.67 0.0 0 0 1075.6468 319.7146
  L 1075.9490 319.2195"
/>
<path stroke="#80aad3" vector-effect="non-scaling-stroke" d="
  M 340.52 203.87
  L 515.85 310.93
  A 0.73 0.73 0.0 0 0 516.78 310.78
  L 517.84 309.52
  Q 518.93 308.24 517.50 307.36
  Q 432.36 255.34 347.23 203.39
  C 344.76 201.89 342.97 201.95 340.54 203.25
  Q 339.99 203.55 340.52 203.87"
/>
<path stroke="#80aad3" vector-effect="non-scaling-stroke" d="
  M 553.35 257.69
  C 555.42 258.96 558.70 261.18 560.76 258.75
  A 1.03 1.03 0.0 0 0 560.51 257.21
  L 470.60 202.33
  Q 470.09 202.01 469.55 202.26
  L 467.33 203.26
  A 0.86 0.86 0.0 0 0 467.23 204.78
  Q 510.56 231.32 553.35 257.69"
/>
<path stroke="#80aad3" vector-effect="non-scaling-stroke" d="
  M 262.87 207.39
  L 502.38 353.63
  A 0.53 0.53 0.0 0 0 503.00 353.58
  C 506.77 350.35 498.64 346.80 496.51 345.50
  Q 380.97 274.91 265.40 204.38
  Q 263.62 203.29 262.40 205.76
  Q 261.89 206.79 262.87 207.39"
/>
<path stroke="#80aad3" vector-effect="non-scaling-stroke" d="
  M 768.07 206.06
  Q 767.50 205.80 767.24 206.36
  L 766.32 208.32
  Q 765.99 209.01 766.64 209.42
  L 1084.96 403.77
  Q 1085.59 404.16 1085.84 403.46
  C 1087.09 400.00 1083.17 397.87 1080.62 396.31
  Q 927.09 302.78 773.71 209.00
  Q 771.56 207.69 768.07 206.06"
/>
<path stroke="#80aad3" vector-effect="non-scaling-stroke" d="
  M 618.54 244.09
  C 571.03 267.32 525.89 305.32 521.49 361.99
  Q 518.46 400.90 542.71 429.86
  Q 543.06 430.28 543.69 431.26
  Q 544.31 432.25 545.07 432.42
  Q 546.42 432.74 546.00 431.42
  C 542.30 419.87 540.64 408.22 541.94 396.03
  C 544.28 374.11 552.58 356.08 568.90 340.64
  C 584.59 325.79 600.12 314.87 619.14 305.96
  Q 668.40 282.87 723.26 280.72
  Q 723.74 280.70 723.89 280.24
  L 746.57 208.60
  Q 746.77 207.96 746.11 207.97
  C 743.70 208.01 741.15 207.89 738.77 208.19
  Q 675.67 216.16 618.54 244.09"
/>
<path stroke="#80aad3" vector-effect="non-scaling-stroke" d="
  M 883.77 225.50
  Q 875.00 220.16 866.43 214.50
  Q 862.82 212.12 859.40 214.17
  A 0.54 0.54 0.0 0 0 859.39 215.10
  L 1063.51 339.77
  A 0.96 0.95 23.9 0 0 1064.92 339.23
  C 1065.58 336.99 1064.57 335.81 1062.66 334.64
  Q 973.23 280.04 883.77 225.50"
/>
<path stroke="#80aad3" vector-effect="non-scaling-stroke" d="
  M 993.25 220.04
  A 0.15 0.15 0.0 0 0 993.13 220.31
  L 1029.74 242.78
  A 0.89 0.88 11.6 0 0 1031.08 241.90
  C 1030.74 239.57 1030.10 238.55 1028.03 237.24
  Q 1017.39 230.45 1006.47 224.07
  Q 1004.25 222.77 1001.30 222.16
  Q 997.88 221.45 993.25 220.04"
/>
<path stroke="#80aad3" vector-effect="non-scaling-stroke" d="
  M 253.01 222.46
  Q 252.68 222.29 252.39 222.52
  Q 251.05 223.59 251.17 224.83
  Q 251.26 225.77 252.51 226.53
  Q 376.93 302.50 501.36 378.46
  Q 501.76 378.71 501.89 378.25
  C 502.55 375.88 502.18 374.39 499.97 373.04
  Q 380.53 300.09 261.14 227.06
  Q 257.34 224.74 253.01 222.46"
/>
<path stroke="#80aad3" vector-effect="non-scaling-stroke" d="
  M 1084.95 428.35
  C 1085.67 427.35 1086.55 425.61 1085.21 424.80
  Q 927.89 328.73 770.59 232.62
  Q 765.85 229.72 761.35 227.16
  A 1.03 1.02 -77.4 0 0 759.82 228.13
  C 760.05 231.20 760.90 231.37 763.59 233.01
  Q 922.20 329.86 1080.82 426.68
  Q 1082.48 427.70 1084.25 428.53
  Q 1084.68 428.73 1084.95 428.35"
/>
<path stroke="#80aad3" vector-effect="non-scaling-stroke" d="
  M 507.96 405.94
  C 507.29 404.06 507.24 402.94 505.42 401.82
  Q 373.99 321.56 242.53 241.32
  Q 241.81 240.87 241.52 241.67
  L 240.85 243.58
  Q 240.65 244.15 241.11 244.54
  Q 243.36 246.42 244.73 247.26
  Q 374.61 326.51 504.46 405.82
  Q 506.03 406.77 507.30 406.83
  A 0.67 0.67 0.0 0 0 507.96 405.94"
/>
<path stroke="#80aad3" vector-effect="non-scaling-stroke" d="
  M 1077.43 445.53
  L 755.03 248.66
  A 1.39 1.39 0.0 0 0 752.91 249.85
  Q 752.91 251.85 754.44 252.79
  Q 914.18 350.44 1073.98 448.00
  Q 1076.55 449.57 1077.75 446.45
  Q 1077.97 445.86 1077.43 445.53"
/>
<path stroke="#80aad3" vector-effect="non-scaling-stroke" d="
  M 234.44 266.36
  C 333.35 326.99 432.47 387.30 531.58 447.87
  A 1.04 1.04 0.0 0 0 533.10 447.35
  Q 533.34 446.72 532.68 446.15
  Q 531.87 445.44 531.79 445.36
  Q 527.68 440.87 521.29 436.97
  Q 378.11 349.55 234.87 262.10
  A 1.25 1.25 0.0 0 0 233.20 262.45
  C 232.21 263.87 233.01 265.48 234.44 266.36"
/>
<path stroke="#80aad3" vector-effect="non-scaling-stroke" d="
  M 1061.01 462.81
  A 0.95 0.95 0.0 0 0 1061.23 461.09
  L 748.35 270.05
  A 1.41 1.41 0.0 0 0 746.38 270.57
  Q 745.22 272.65 748.09 274.41
  Q 902.42 368.70 1056.77 462.96
  Q 1058.01 463.71 1061.01 462.81"
/>
<path stroke="#80aad3" vector-effect="non-scaling-stroke" d="
  M 565.35 490.86
  Q 566.71 490.16 565.41 489.37
  L 226.53 282.46
  Q 225.95 282.10 225.62 282.70
  L 224.37 284.98
  Q 224.06 285.54 224.61 285.87
  Q 392.66 388.48 560.69 491.09
  C 562.84 492.41 563.35 491.87 565.35 490.86"
/>
<path stroke="#80aad3" vector-effect="non-scaling-stroke" d="
  M 1039.19 477.58
  Q 1039.65 477.86 1041.26 478.57
  Q 1041.77 478.80 1042.17 478.40
  L 1043.52 477.07
  A 0.91 0.90 -51.7 0 0 1043.36 475.65
  L 741.21 291.14
  Q 740.57 290.75 740.23 291.42
  L 739.05 293.70
  Q 738.77 294.23 739.29 294.55
  Q 889.17 386.18 1039.19 477.58"
/>
<path stroke="#80aad3" vector-effect="non-scaling-stroke" d="
  M 1157.81 575.58
  A 0.80 0.79 16.9 0 0 1159.02 574.94
  L 1159.10 572.33
  Q 1159.12 571.81 1158.67 571.53
  Q 940.07 438.03 721.49 304.49
  C 717.73 302.19 713.85 299.24 709.27 300.09
  A 0.79 0.79 0.0 0 0 709.00 301.54
  L 1157.81 575.58"
/>
<path stroke="#80aad3" vector-effect="non-scaling-stroke" d="
  M 223.10 310.41
  C 330.73 376.35 438.56 442.00 546.30 507.75
  A 1.68 1.68 0.0 0 0 548.79 506.77
  C 549.29 505.04 547.93 504.17 546.53 503.32
  Q 383.38 403.68 220.13 304.02
  A 0.71 0.70 25.0 0 0 219.10 304.39
  C 217.96 307.69 220.97 309.11 223.10 310.41"
/>
<path stroke="#80aad3" vector-effect="non-scaling-stroke" d="
  M 681.79 305.92
  Q 679.48 304.52 676.74 305.48
  A 0.96 0.96 0.0 0 0 676.56 307.20
  Q 908.68 448.92 1141.10 590.84
  C 1143.45 592.28 1145.41 592.40 1147.54 590.76
  Q 1147.93 590.47 1147.51 590.21
  Q 914.74 447.92 681.79 305.92"
/>
<path stroke="#80aad3" vector-effect="non-scaling-stroke" d="
  M 648.51 340.93
  Q 623.25 341.11 598.00 341.14
  C 592.93 341.15 586.68 347.64 583.11 350.85
  A 0.64 0.63 -65.8 0 0 583.53 351.96
  Q 621.37 352.03 658.50 352.10
  Q 660.79 352.11 661.57 352.91
  Q 667.04 358.51 674.56 369.23
  Q 677.20 372.99 678.97 376.93
  A 0.79 0.78 77.8 0 1 678.26 378.04
  L 564.67 378.00
  A 0.81 0.80 8.2 0 0 563.90 378.57
  L 561.06 388.19
  A 0.63 0.63 0.0 0 0 561.67 389.00
  C 582.17 389.00 602.74 388.68 623.25 389.41
  Q 653.63 390.49 684.15 389.85
  Q 684.68 389.84 684.91 389.35
  Q 688.97 380.62 688.10 371.03
  C 687.78 367.42 686.78 365.62 684.73 362.77
  Q 678.21 353.67 673.13 348.11
  Q 658.03 331.57 640.69 317.36
  Q 640.28 317.02 639.79 317.23
  L 629.55 321.75
  A 1.14 1.14 0.0 0 0 629.30 323.68
  Q 638.18 330.78 646.37 338.62
  A 1.90 1.81 -9.5 0 0 646.87 338.96
  Q 647.94 339.46 648.78 340.25
  A 0.40 0.39 -23.5 0 1 648.51 340.93"
/>
<path stroke="#80aad3" vector-effect="non-scaling-stroke" d="
  M 208.23 326.80
  L 532.08 524.56
  Q 533.36 525.34 534.35 524.21
  Q 535.10 523.36 535.08 522.27
  Q 535.07 521.79 534.66 521.54
  Q 374.89 423.98 215.11 326.41
  C 212.12 324.59 210.51 322.79 208.13 326.39
  Q 207.96 326.64 208.23 326.80"
/>
<path stroke="#80aad3" vector-effect="non-scaling-stroke" d="
  M 685.04 337.82
  C 833.45 428.55 981.91 519.10 1130.55 609.87
  A 1.21 1.20 -60.9 0 0 1132.25 609.38
  L 1133.07 607.75
  Q 1133.43 607.03 1132.74 606.61
  L 673.53 326.22
  A 0.59 0.58 84.9 0 0 672.79 327.11
  C 676.47 331.27 680.08 334.78 685.04 337.82"
/>
<path stroke="#80aad3" vector-effect="non-scaling-stroke" d="
  M 183.48 332.50
  C 178.66 329.55 174.24 326.10 168.32 327.09
  A 0.39 0.39 0.0 0 0 168.18 327.81
  L 522.04 543.88
  A 1.33 1.32 18.9 0 0 524.05 542.90
  C 524.39 539.98 522.45 539.56 520.41 538.31
  Q 351.95 435.40 183.48 332.50"
/>
<path stroke="#80aad3" vector-effect="non-scaling-stroke" d="
  M 143.49 333.49
  C 140.53 331.69 137.89 330.47 134.30 331.10
  A 0.62 0.62 0.0 0 0 133.87 332.01
  Q 134.14 332.52 134.83 332.93
  Q 324.28 448.59 513.71 564.28
  Q 515.49 565.36 516.90 565.88
  Q 517.55 566.12 517.83 565.49
  L 518.59 563.80
  A 1.11 1.11 0.0 0 0 518.16 562.40
  Q 330.43 447.77 143.49 333.49"
/>
<path stroke="#80aad3" vector-effect="non-scaling-stroke" d="
  M 121.22 345.52
  A 1.26 1.25 41.2 0 0 119.79 345.61
  C 117.85 347.16 119.18 348.83 120.81 349.82
  Q 317.66 470.02 514.47 590.29
  Q 517.56 592.18 520.93 593.96
  A 0.72 0.71 16.3 0 0 521.98 593.39
  C 522.17 591.08 520.99 589.61 518.98 588.38
  Q 320.49 467.07 121.22 345.52"
/>
<path stroke="#80aad3" vector-effect="non-scaling-stroke" d="
  M 107.47 367.15
  C 241.18 448.78 374.89 530.41 508.57 612.07
  C 511.56 613.89 513.21 614.38 516.53 613.86
  A 0.75 0.75 0.0 0 0 516.80 612.48
  L 109.76 363.95
  A 1.05 1.04 -60.5 0 0 108.29 364.36
  L 107.25 366.34
  Q 106.98 366.85 107.47 367.15"
/>
<path stroke="#80aad3" vector-effect="non-scaling-stroke" d="
  M 1157.52 651.80
  A 0.27 0.27 0.0 0 0 1157.85 651.38
  C 1154.06 647.60 1150.82 643.11 1146.20 640.29
  Q 926.48 506.14 706.88 372.04
  A 0.50 0.50 0.0 0 0 706.12 372.50
  C 706.27 375.03 707.12 376.78 709.42 378.18
  Q 933.29 514.90 1157.52 651.80"
/>
<path stroke="#80aad3" vector-effect="non-scaling-stroke" d="
  M 107.75 392.72
  C 233.15 469.55 358.82 546.05 484.56 622.87
  A 0.91 0.91 0.0 0 0 485.86 622.49
  L 486.85 620.37
  Q 487.11 619.82 486.60 619.51
  L 104.35 386.11
  A 0.92 0.92 0.0 0 0 102.96 386.78
  C 102.50 390.40 105.23 391.18 107.75 392.72"
/>
<path stroke="#80aad3" vector-effect="non-scaling-stroke" d="
  M 654.75 510.99
  Q 631.34 511.09 607.75 510.89
  Q 603.29 510.85 601.97 511.94
  Q 596.42 516.51 591.12 521.15
  A 0.49 0.49 0.0 0 0 591.44 522.01
  Q 626.62 522.02 662.00 521.84
  Q 663.66 521.83 665.24 522.22
  Q 665.73 522.35 666.01 522.77
  C 670.68 530.00 674.83 538.49 675.04 547.21
  A 0.78 0.78 0.0 0 1 674.26 548.01
  L 567.42 548.00
  A 2.39 2.37 12.9 0 0 565.28 549.33
  L 560.94 558.18
  A 0.57 0.57 0.0 0 0 561.45 559.00
  L 673.99 558.99
  A 1.05 1.04 6.9 0 1 675.01 560.28
  C 673.48 566.50 665.83 585.10 657.74 585.06
  Q 621.76 584.87 563.55 585.05
  Q 562.87 585.05 563.22 585.64
  Q 564.93 588.58 567.07 591.24
  C 569.98 594.87 570.85 596.13 575.52 596.04
  Q 594.19 595.68 645.57 596.14
  A 0.35 0.35 0.0 0 1 645.77 596.78
  Q 640.04 600.85 632.24 604.47
  C 601.49 618.78 568.27 626.66 534.75 630.99
  Q 518.93 633.03 502.91 633.03
  A 1.04 1.03 8.8 0 0 501.92 633.75
  L 480.07 699.24
  A 0.63 0.63 0.0 0 0 480.73 700.07
  Q 551.40 693.56 617.03 668.21
  Q 651.70 654.83 677.05 636.13
  Q 694.25 623.45 706.76 606.77
  C 721.62 586.94 728.76 561.24 724.50 536.71
  C 718.01 499.36 681.59 472.91 649.18 458.53
  A 0.46 0.46 0.0 0 1 649.08 457.75
  Q 662.06 447.85 674.49 437.25
  C 684.61 428.62 692.97 418.65 695.71 405.25
  Q 696.58 400.99 695.80 390.32
  Q 695.75 389.58 695.25 390.14
  C 693.79 391.79 693.09 394.45 692.35 395.88
  C 684.61 410.90 671.22 425.00 658.88 434.70
  Q 648.75 442.65 638.66 450.66
  Q 636.47 452.40 634.74 451.81
  Q 620.41 446.96 595.45 436.05
  Q 585.93 431.90 577.25 426.56
  A 0.31 0.31 0.0 0 1 577.41 425.99
  Q 614.50 425.93 651.50 426.03
  Q 655.76 426.04 658.18 423.54
  C 660.69 420.94 663.52 418.41 665.77 415.56
  Q 666.22 414.99 665.50 414.99
  L 560.76 415.00
  A 0.61 0.60 84.2 0 0 560.17 415.73
  C 564.42 435.79 576.54 452.92 592.12 465.88
  Q 607.13 478.35 612.76 481.52
  Q 635.10 494.10 654.96 510.39
  A 0.34 0.34 0.0 0 1 654.75 510.99"
/>
<path stroke="#80aad3" vector-effect="non-scaling-stroke" d="
  M 1173.56 686.75
  Q 1173.99 686.94 1173.99 686.47
  L 1174.02 683.36
  Q 1174.03 682.75 1173.51 682.43
  L 711.92 400.59
  Q 711.53 400.35 711.20 400.67
  C 708.79 402.97 710.56 404.36 712.68 405.65
  Q 941.31 545.22 1169.89 684.86
  Q 1171.26 685.70 1173.56 686.75"
/>
<path stroke="#80aad3" vector-effect="non-scaling-stroke" d="
  M 98.46 408.24
  Q 97.97 408.02 97.96 408.56
  L 97.93 411.59
  Q 97.93 412.24 98.48 412.58
  Q 286.99 527.68 475.49 642.80
  Q 476.75 643.57 477.35 643.72
  A 1.87 1.86 -18.8 0 0 478.96 640.45
  Q 476.71 638.66 473.33 636.60
  Q 286.61 522.87 99.98 408.97
  Q 99.67 408.78 98.46 408.24"
/>
<path stroke="#80aad3" vector-effect="non-scaling-stroke" d="
  M 705.33 422.03
  A 0.77 0.76 28.9 0 0 704.25 422.34
  L 703.36 424.09
  A 0.80 0.79 36.1 0 0 703.51 425.01
  Q 704.81 426.31 705.36 426.65
  Q 936.35 567.68 1167.69 708.94
  A 0.77 0.77 0.0 0 0 1168.84 708.48
  L 1169.47 706.04
  Q 1169.60 705.52 1169.14 705.23
  L 705.33 422.03"
/>
<path stroke="#80aad3" vector-effect="non-scaling-stroke" d="
  M 1169.0292 732.8571
  A 1.94 1.94 0.0 0 0 1168.3841 730.1905
  L 693.1782 440.1236
  A 1.94 1.94 0.0 0 0 690.5116 440.7687
  L 690.4908 440.8029
  A 1.94 1.94 0.0 0 0 691.1359 443.4695
  L 1166.3418 733.5364
  A 1.94 1.94 0.0 0 0 1169.0084 732.8913
  L 1169.0292 732.8571"
/>
<path stroke="#80aad3" vector-effect="non-scaling-stroke" d="
  M 129.96 457.29
  C 242.95 526.17 355.86 595.20 468.79 664.16
  Q 470.22 665.03 470.92 664.92
  Q 472.11 664.73 472.60 662.73
  A 1.03 1.02 -67.4 0 0 472.14 661.61
  L 110.27 440.65
  Q 108.70 439.69 109.84 441.13
  C 112.32 444.23 114.60 447.31 118.00 449.64
  Q 122.88 452.97 129.96 457.29"
/>
<path stroke="#80aad3" vector-effect="non-scaling-stroke" d="
  M 1152.69 746.06
  Q 933.00 612.01 715.16 479.16
  Q 714.18 478.56 713.33 478.18
  A 0.50 0.49 -7.3 0 0 712.74 478.94
  C 716.73 483.88 720.72 486.96 726.65 490.58
  Q 936.50 618.70 1146.35 746.83
  C 1148.66 748.25 1150.49 747.81 1152.68 746.64
  A 0.33 0.33 0.0 0 0 1152.69 746.06"
/>
<path stroke="#80aad3" vector-effect="non-scaling-stroke" d="
  M 465.0287 684.8083
  A 1.80 1.80 0.0 0 0 464.4301 682.3341
  L 138.0323 483.1000
  A 1.80 1.80 0.0 0 0 135.5581 483.6986
  L 135.3913 483.9717
  A 1.80 1.80 0.0 0 0 135.9899 486.4459
  L 462.3877 685.6800
  A 1.80 1.80 0.0 0 0 464.8619 685.0814
  L 465.0287 684.8083"
/>
<path stroke="#80aad3" vector-effect="non-scaling-stroke" d="
  M 1095.43 486.49
  L 1113.60 497.69
  A 0.39 0.39 0.0 0 0 1114.19 497.29
  Q 1114.11 496.85 1113.78 496.47
  C 1109.20 491.09 1103.23 485.10 1095.54 486.03
  Q 1094.82 486.11 1095.43 486.49"
/>
<path stroke="#80aad3" vector-effect="non-scaling-stroke" d="
  M 552.09 524.08
  C 540.02 537.58 532.51 552.51 532.82 570.91
  Q 533.20 593.91 548.99 609.48
  Q 549.32 609.80 549.76 609.72
  L 561.75 607.69
  A 0.61 0.60 64.4 0 0 562.10 606.69
  C 554.60 598.33 546.68 588.93 544.71 577.29
  C 541.67 559.44 551.30 542.47 562.87 529.87
  Q 580.07 511.11 600.48 495.24
  A 0.78 0.78 0.0 0 0 600.44 493.98
  L 592.46 488.46
  A 2.66 2.65 -47.2 0 0 589.27 488.58
  Q 569.47 504.65 552.09 524.08"
/>
<path stroke="#80aad3" vector-effect="non-scaling-stroke" d="
  M 105.29 493.13
  L 456.91 707.84
  A 0.66 0.65 -66.7 0 0 457.88 707.45
  Q 458.73 704.43 456.17 702.86
  Q 283.43 597.32 110.67 491.82
  Q 108.04 490.22 105.25 492.31
  Q 104.66 492.75 105.29 493.13"
/>
<path stroke="#80aad3" vector-effect="non-scaling-stroke" d="
  M 1070.67 492.63
  Q 1068.14 491.11 1065.18 492.14
  A 0.74 0.74 0.0 0 0 1065.04 493.47
  L 1152.44 546.83
  A 0.25 0.25 0.0 0 0 1152.78 546.49
  Q 1151.54 544.43 1149.79 543.43
  Q 1140.16 537.93 1132.45 531.11
  Q 1128.62 527.73 1125.33 525.72
  Q 1098.08 509.03 1070.67 492.63"
/>
<path stroke="#80aad3" vector-effect="non-scaling-stroke" d="
  M 92.03 506.70
  Q 90.61 507.00 90.11 508.70
  Q 89.95 509.23 90.42 509.52
  L 685.18 872.67
  A 0.55 0.54 16.2 0 0 686.01 872.22
  L 686.03 869.09
  Q 686.04 868.60 685.62 868.34
  Q 390.00 687.85 94.38 507.34
  Q 93.00 506.50 92.03 506.70"
/>
<path stroke="#80aad3" vector-effect="non-scaling-stroke" d="
  M 740.85 520.45
  Q 739.66 519.90 739.88 521.19
  C 740.54 525.04 743.31 526.21 746.37 528.08
  Q 941.59 647.27 1137.07 766.62
  Q 1137.85 767.10 1138.00 766.20
  Q 1138.55 762.99 1135.43 761.09
  Q 939.86 641.62 744.24 522.21
  Q 742.83 521.35 740.85 520.45"
/>
<path stroke="#80aad3" vector-effect="non-scaling-stroke" d="
  M 461.47 760.27
  Q 466.64 762.14 471.74 763.71
  A 0.22 0.21 69.1 0 0 471.91 763.32
  L 85.72 527.52
  Q 85.23 527.22 85.07 527.76
  C 84.35 530.15 84.87 531.59 87.06 532.92
  Q 268.43 643.69 449.71 754.62
  Q 455.31 758.04 461.47 760.27"
/>
<path stroke="#80aad3" vector-effect="non-scaling-stroke" d="
  M 1130.00 787.58
  A 0.69 0.69 0.0 0 0 1130.97 787.28
  L 1131.94 785.21
  Q 1132.25 784.55 1131.63 784.17
  L 745.24 548.25
  Q 744.88 548.04 744.80 548.44
  Q 744.00 552.09 746.43 553.58
  Q 924.94 662.56 1103.33 771.71
  Q 1116.49 779.76 1130.00 787.58"
/>
<path stroke="#80aad3" vector-effect="non-scaling-stroke" d="
  M 78.31 553.05
  C 180.52 615.45 282.68 677.83 384.86 740.24
  C 388.71 742.59 391.50 743.70 395.71 742.88
  A 0.30 0.30 0.0 0 0 395.81 742.33
  Q 240.42 647.44 85.30 552.72
  C 82.82 551.21 80.67 550.52 78.28 552.23
  A 0.49 0.49 0.0 0 0 78.31 553.05"
/>
<path stroke="#80aad3" vector-effect="non-scaling-stroke" d="
  M 65.55 566.14
  Q 64.52 565.51 64.12 566.65
  C 63.06 569.76 65.42 570.64 67.57 571.95
  Q 215.84 662.50 364.12 753.03
  Q 364.65 753.36 365.15 752.99
  L 367.58 751.18
  Q 368.04 750.83 367.55 750.53
  L 65.55 566.14"
/>
<path stroke="#80aad3" vector-effect="non-scaling-stroke" d="
  M 743.96 572.93
  A 1.36 1.36 0.0 0 0 741.90 574.12
  L 741.93 575.65
  Q 741.94 576.25 742.46 576.57
  Q 923.81 687.36 1105.14 798.18
  Q 1108.12 800.00 1110.44 798.16
  A 0.93 0.93 0.0 0 0 1110.35 796.64
  L 743.96 572.93"
/>
<path stroke="#80aad3" vector-effect="non-scaling-stroke" d="
  M 348.70 765.74
  A 0.89 0.89 0.0 0 0 348.51 764.37
  L 65.17 591.35
  A 0.89 0.89 0.0 0 0 63.82 592.16
  L 63.96 594.77
  A 0.89 0.89 0.0 0 0 64.39 595.48
  L 346.09 767.49
  A 0.89 0.89 0.0 0 0 347.21 767.34
  L 348.70 765.74"
/>
<path stroke="#80aad3" vector-effect="non-scaling-stroke" d="
  M 1093.24 811.66
  L 737.06 594.17
  A 1.40 1.39 34.4 0 0 735.23 594.51
  C 733.38 596.93 737.05 598.75 738.56 599.68
  Q 914.38 707.02 1090.17 814.40
  C 1091.62 815.28 1093.02 815.09 1093.78 813.56
  A 1.45 1.45 0.0 0 0 1093.24 811.66"
/>
<path stroke="#80aad3" vector-effect="non-scaling-stroke" d="
  M 1081.4167 831.3741
  A 1.28 1.28 0.0 0 0 1080.9910 829.6147
  L 726.5114 613.2394
  A 1.28 1.28 0.0 0 0 724.7519 613.6650
  L 724.0433 614.8259
  A 1.28 1.28 0.0 0 0 724.4690 616.5853
  L 1078.9486 832.9606
  A 1.28 1.28 0.0 0 0 1080.7081 832.5350
  L 1081.4167 831.3741"
/>
<path stroke="#80aad3" vector-effect="non-scaling-stroke" d="
  M 333.45 780.53
  Q 199.25 698.81 65.22 616.82
  C 63.88 616.00 62.43 614.87 60.88 615.04
  A 1.79 1.79 0.0 0 0 60.14 618.35
  L 337.25 787.55
  Q 337.65 787.80 337.80 787.35
  C 339.15 783.20 336.84 782.60 333.45 780.53"
/>
<path stroke="#80aad3" vector-effect="non-scaling-stroke" d="
  M 1050.55 836.53
  L 712.58 630.17
  A 1.40 1.40 0.0 0 0 710.94 630.30
  Q 708.68 632.23 712.13 634.34
  Q 876.16 734.63 1040.25 834.83
  C 1043.85 837.03 1046.49 837.57 1050.48 836.89
  Q 1050.99 836.80 1050.55 836.53"
/>
<path stroke="#80aad3" vector-effect="non-scaling-stroke" d="
  M 53.30 635.07
  A 0.86 0.85 -67.1 0 0 52.03 635.59
  C 51.20 638.75 53.27 639.60 55.96 641.25
  Q 199.47 728.90 343.44 816.80
  Q 344.30 817.32 344.80 816.45
  C 345.89 814.56 344.69 813.00 343.00 811.96
  Q 198.46 723.61 53.30 635.07"
/>
<path stroke="#80aad3" vector-effect="non-scaling-stroke" d="
  M 1004.44 833.49
  Q 851.03 740.26 697.88 646.62
  Q 694.63 644.63 692.98 647.71
  Q 692.76 648.12 693.16 648.36
  L 1001.04 836.36
  Q 1001.59 836.69 1002.16 836.41
  L 1005.48 834.84
  Q 1005.92 834.63 1005.55 834.31
  Q 1005.00 833.83 1004.44 833.49"
/>
<path stroke="#80aad3" vector-effect="non-scaling-stroke" d="
  M 944.33 822.54
  Q 941.37 820.79 932.75 815.53
  Q 805.62 737.91 678.52 660.23
  Q 676.23 658.83 674.44 660.18
  A 1.29 1.29 0.0 0 0 674.53 662.31
  Q 679.65 665.52 684.50 668.48
  Q 806.00 742.72 927.52 816.93
  Q 932.98 820.26 944.16 822.94
  A 0.22 0.22 0.0 0 0 944.33 822.54"
/>
<path stroke="#80aad3" vector-effect="non-scaling-stroke" d="
  M 652.55 673.11
  Q 651.89 673.49 652.44 674.00
  Q 654.47 675.91 657.18 677.56
  Q 733.04 723.65 808.81 769.90
  C 812.36 772.07 814.86 772.71 818.77 771.87
  A 0.21 0.21 0.0 0 0 818.84 771.48
  Q 738.17 722.13 657.61 673.02
  C 655.60 671.79 654.45 672.04 652.55 673.11"
/>
<path stroke="#80aad3" vector-effect="non-scaling-stroke" d="
  M 80.52 677.13
  A 1.02 1.02 0.0 0 0 79.05 677.60
  L 78.35 679.28
  Q 78.12 679.83 78.57 680.21
  Q 80.18 681.54 82.68 683.06
  Q 141.42 718.86 334.26 836.71
  Q 336.05 837.81 338.32 837.96
  A 1.55 1.55 0.0 0 0 339.22 835.09
  L 80.52 677.13"
/>
<path stroke="#80aad3" vector-effect="non-scaling-stroke" d="
  M 635.55 684.87
  C 633.25 683.46 630.52 682.28 628.46 684.27
  Q 627.84 684.87 628.58 685.32
  Q 700.16 729.03 771.04 772.31
  C 773.63 773.90 775.80 774.59 778.59 773.79
  A 0.75 0.74 52.6 0 0 778.77 772.44
  Q 707.22 728.76 635.55 684.87"
/>
<path stroke="#80aad3" vector-effect="non-scaling-stroke" d="
  M 291.43 831.37
  L 63.51 692.21
  A 0.52 0.51 30.4 0 0 62.79 692.39
  L 61.42 694.83
  Q 61.14 695.33 61.63 695.63
  Q 173.22 763.80 284.83 831.94
  Q 287.74 833.71 291.42 831.69
  Q 291.70 831.54 291.43 831.37"
/>
<path stroke="#80aad3" vector-effect="non-scaling-stroke" d="
  M 718.02 765.17
  C 720.95 766.93 723.50 767.59 726.70 766.99
  Q 727.82 766.78 726.85 766.19
  Q 666.90 729.60 607.75 693.49
  Q 605.14 691.90 602.44 693.88
  Q 601.99 694.20 602.43 694.54
  C 605.80 697.09 610.07 699.39 612.91 701.14
  Q 665.30 733.44 718.02 765.17"
/>
<path stroke="#80aad3" vector-effect="non-scaling-stroke" d="
  M 581.06 702.82
  C 578.64 701.35 576.76 700.79 574.36 702.35
  Q 573.75 702.76 574.37 703.14
  L 692.96 775.57
  Q 693.52 775.92 694.00 775.48
  L 695.29 774.32
  A 1.25 1.24 40.0 0 0 695.11 772.33
  Q 638.09 737.30 581.06 702.82"
/>
<path stroke="#80aad3" vector-effect="non-scaling-stroke" d="
  M 686.48 796.75
  A 0.33 0.33 0.0 0 0 686.95 796.47
  L 687.06 793.53
  A 1.17 1.17 0.0 0 0 686.50 792.48
  Q 619.24 751.42 551.99 710.37
  C 549.60 708.91 547.91 708.65 545.28 709.20
  A 0.67 0.66 67.6 0 0 544.86 710.21
  C 545.59 711.36 546.81 711.79 547.83 712.41
  Q 613.97 752.76 680.04 793.21
  Q 682.83 794.92 686.48 796.75"
/>
<path stroke="#80aad3" vector-effect="non-scaling-stroke" d="
  M 263.84 844.51
  A 0.77 0.76 -51.7 0 0 264.78 844.39
  Q 266.15 843.04 265.79 841.83
  Q 265.57 841.06 264.18 840.21
  Q 160.42 776.83 56.64 713.47
  Q 56.21 713.21 56.05 713.69
  C 55.16 716.44 56.11 717.68 58.46 719.12
  Q 160.95 781.92 263.84 844.51"
/>
<path stroke="#80aad3" vector-effect="non-scaling-stroke" d="
  M 525.60 719.63
  C 522.17 717.54 517.40 714.00 513.22 715.07
  Q 511.28 715.56 512.99 716.61
  L 683.70 820.83
  A 0.84 0.83 -68.6 0 0 684.95 820.28
  C 685.48 817.82 684.62 816.82 682.52 815.53
  Q 604.03 767.62 525.60 719.63"
/>
<path stroke="#80aad3" vector-effect="non-scaling-stroke" d="
  M 679.63 839.25
  Q 582.67 779.98 485.66 720.81
  C 483.27 719.36 480.69 718.29 478.18 719.16
  Q 476.46 719.76 478.01 720.70
  L 682.28 845.44
  Q 682.68 845.68 682.83 845.24
  C 684.11 841.42 682.18 840.81 679.63 839.25"
/>
<path stroke="#80aad3" vector-effect="non-scaling-stroke" d="
  M 87.20 757.57
  L 70.24 747.30
  A 0.18 0.18 0.0 0 0 69.99 747.37
  L 69.97 747.40
  A 9.93 1.28 31.2 0 0 77.80 753.64
  L 78.08 753.80
  A 9.93 1.28 31.2 0 0 87.24 757.85
  L 87.26 757.82
  A 0.18 0.18 0.0 0 0 87.20 757.57"
/>
<path stroke="#80aad3" vector-effect="non-scaling-stroke" d="
  M 106.27 769.55
  C 108.40 771.87 108.37 775.08 111.04 776.71
  Q 180.58 819.23 250.17 861.68
  A 0.65 0.65 0.0 0 0 250.97 861.59
  L 252.66 859.91
  Q 253.09 859.48 252.66 859.04
  Q 251.41 857.76 249.88 856.83
  Q 178.08 813.10 106.44 769.35
  A 0.13 0.13 0.0 0 0 106.27 769.55"
/>
<path stroke="#80aad3" vector-effect="non-scaling-stroke" d="
  M 696.32 903.69
  Q 695.17 899.65 693.72 898.77
  Q 601.71 842.56 508.98 785.95
  A 0.42 0.42 0.0 0 0 508.42 786.56
  L 512.81 792.75
  A 1.56 1.45 85.0 0 0 513.24 793.14
  L 696.07 904.78
  Q 696.72 905.18 696.68 904.41
  Q 696.65 903.96 696.32 903.69"
/>
<path stroke="#80aad3" vector-effect="non-scaling-stroke" d="
  M 127.44 810.83
  C 131.14 812.11 135.95 817.43 139.90 819.84
  Q 182.17 845.67 224.48 871.44
  C 227.15 873.06 229.65 873.46 232.55 872.89
  A 0.52 0.52 0.0 0 0 232.72 871.94
  L 108.95 796.36
  Q 108.57 796.13 108.56 796.57
  C 108.51 798.99 108.86 800.29 110.86 801.84
  Q 118.42 807.72 127.44 810.83"
/>
<path stroke="#80aad3" vector-effect="non-scaling-stroke" d="
  M 710.65 938.79
  A 0.17 0.17 0.0 0 0 710.89 938.63
  C 710.69 935.61 709.51 933.87 706.83 932.23
  Q 611.25 873.86 515.66 815.50
  Q 515.25 815.25 515.09 815.71
  C 514.19 818.34 515.09 819.75 517.43 821.18
  Q 610.70 878.12 703.87 935.20
  Q 706.94 937.08 710.65 938.79"
/>
<path stroke="#80aad3" vector-effect="non-scaling-stroke" d="
  M 979.21 843.89
  L 957.99 830.96
  A 0.51 0.50 -4.6 0 0 957.34 831.72
  C 961.02 835.96 965.57 840.62 970.64 842.85
  Q 974.22 844.43 978.64 845.33
  A 0.79 0.79 0.0 0 0 979.21 843.89"
/>
<path stroke="#80aad3" vector-effect="non-scaling-stroke" d="
  M 169.03 858.24
  L 141.74 841.65
  A 0.15 0.15 0.0 0 0 141.53 841.70
  L 141.51 841.74
  A 4.42 4.02 31.3 0 0 143.20 847.47
  L 163.19 859.63
  A 4.42 4.02 31.3 0 0 169.06 858.49
  L 169.08 858.45
  A 0.15 0.15 0.0 0 0 169.03 858.24"
/>
<path stroke="#80aad3" vector-effect="non-scaling-stroke" d="
  M 517.68 842.25
  A 0.51 0.50 7.5 0 0 516.93 842.82
  C 518.33 847.55 520.73 848.68 524.67 851.09
  Q 617.45 907.73 710.23 964.35
  Q 710.62 964.59 710.91 964.23
  Q 713.06 961.50 709.93 959.59
  Q 614.15 901.05 517.68 842.25"
/>
<path stroke="#80aad3" vector-effect="non-scaling-stroke" d="
  M 523.37 871.13
  A 0.88 0.88 0.0 0 0 522.08 871.59
  C 521.42 873.48 522.14 874.81 523.79 875.87
  Q 531.92 881.10 540.18 886.12
  Q 613.72 930.94 687.23 975.82
  Q 690.80 977.99 693.93 976.77
  Q 695.41 976.20 694.06 975.37
  L 523.37 871.13"
/>
<path stroke="#80aad3" vector-effect="non-scaling-stroke" d="
  M 517.97 893.30
  Q 517.24 892.86 517.04 893.69
  L 516.41 896.29
  Q 516.26 896.86 516.77 897.17
  Q 582.61 937.34 648.42 977.57
  Q 652.28 979.93 657.34 978.82
  Q 657.83 978.71 657.40 978.45
  L 517.97 893.30"
/>
<path stroke="#80aad3" vector-effect="non-scaling-stroke" d="
  M 510.84 914.40
  Q 510.36 914.11 510.10 914.61
  L 509.02 916.70
  A 0.82 0.82 0.0 0 0 509.24 917.73
  Q 511.05 919.13 512.99 920.32
  Q 556.94 947.14 600.87 974.01
  C 604.14 976.00 606.83 976.65 610.41 975.91
  Q 611.27 975.74 610.52 975.28
  L 510.84 914.40"
/>
<path stroke="#80aad3" vector-effect="non-scaling-stroke" d="
  M 499.70 936.25
  Q 499.15 937.30 500.16 937.92
  Q 528.85 955.50 558.51 973.56
  C 562.11 975.75 564.74 976.68 568.68 975.87
  A 0.34 0.34 0.0 0 0 568.79 975.24
  L 502.02 934.47
  A 1.15 1.15 0.0 0 0 500.41 934.91
  L 499.70 936.25"
/>
<path stroke="#80aad3" vector-effect="non-scaling-stroke" d="
  M 497.20 957.01
  A 0.82 0.82 0.0 0 0 495.95 957.62
  C 495.69 960.07 497.24 961.54 499.35 962.85
  Q 510.70 969.89 522.12 976.85
  C 525.30 978.78 527.96 979.70 531.41 978.82
  Q 532.44 978.56 531.53 978.00
  L 497.20 957.01"
/>
</g>
<path fill="#0054a6" d="
  M 0.00 0.00
  L 1241.00 0.00
  L 1241.00 1033.00
  L 0.00 1033.00
  L 0.00 0.00
  Z
  M 831.54 197.74
  A 0.32 0.32 0.0 0 0 831.98 197.45
  L 832.06 194.36
  Q 832.07 193.85 831.63 193.58
  Q 724.16 127.98 616.72 62.33
  Q 611.65 59.23 606.53 60.01
  Q 605.72 60.13 606.40 60.59
  Q 607.37 61.25 609.29 62.42
  Q 718.82 129.27 828.35 196.13
  Q 829.77 197.00 831.54 197.74
  Z
  M 658.97 64.84
  Q 656.30 63.96 653.85 63.56
  Q 652.54 63.35 653.67 64.04
  L 705.54 95.71
  A 0.44 0.44 0.0 0 0 706.14 95.09
  C 703.71 91.35 701.30 88.53 697.27 86.07
  Q 682.75 77.18 668.23 68.30
  C 665.67 66.73 661.14 65.56 658.97 64.84
  Z
  M 1076.68 371.49
  Q 1075.28 367.60 1072.56 365.94
  Q 827.25 216.36 582.03 66.65
  Q 579.13 64.88 576.58 67.31
  Q 576.20 67.66 576.64 67.94
  L 1075.44 372.50
  Q 1077.50 373.76 1076.68 371.49
  Z
  M 739.83 188.45
  L 559.37 78.27
  Q 558.76 77.90 558.22 78.36
  L 556.21 80.10
  A 0.55 0.55 0.0 0 0 556.29 80.99
  Q 644.32 134.71 732.33 188.47
  C 735.10 190.17 737.12 190.11 739.83 188.62
  A 0.10 0.10 0.0 0 0 739.83 188.45
  Z
  M 545.72 99.87
  C 595.75 130.89 646.17 161.34 696.44 191.99
  C 699.95 194.13 702.24 195.73 705.62 194.77
  A 0.88 0.88 0.0 0 0 705.84 193.18
  Q 626.50 144.70 547.57 96.54
  Q 546.46 95.86 545.78 96.11
  Q 544.80 96.47 544.78 98.16
  A 1.99 1.99 0.0 0 0 545.72 99.87
  Z
  M 797.19 124.89
  C 789.48 116.00 777.52 107.34 765.59 106.33
  Q 764.47 106.23 765.43 106.81
  L 796.47 125.73
  A 0.56 0.56 0.0 0 0 797.19 124.89
  Z
  M 830.79 171.42
  C 828.64 167.21 826.77 165.13 822.49 162.52
  Q 780.05 136.62 737.61 110.70
  C 733.50 108.19 730.23 107.59 725.66 107.45
  Q 724.92 107.42 725.55 107.81
  Q 776.16 138.95 826.81 169.99
  Q 828.65 171.12 830.60 171.65
  Q 830.96 171.74 830.79 171.42
  Z
  M 670.10 201.41
  C 672.21 202.70 674.03 203.60 676.37 201.90
  Q 677.34 201.21 676.32 200.59
  L 541.25 118.15
  Q 540.62 117.76 540.27 118.41
  L 539.03 120.67
  Q 538.74 121.19 539.25 121.50
  Q 604.68 161.45 670.10 201.41
  Z
  M 519.64 130.61
  C 517.01 129.02 515.24 128.85 512.56 130.15
  Q 512.14 130.36 512.54 130.60
  Q 578.07 170.72 643.68 210.72
  C 645.65 211.93 647.60 211.86 649.45 210.73
  Q 650.29 210.22 649.46 209.71
  Q 584.41 169.76 519.64 130.61
  Z
  M 498.91 143.18
  A 1.93 1.92 23.5 0 0 496.06 144.30
  C 495.55 146.08 497.50 146.94 498.81 147.74
  Q 558.31 184.07 617.77 220.47
  Q 619.75 221.68 622.17 222.01
  A 1.57 1.57 0.0 0 0 623.20 219.12
  L 498.91 143.18
  Z
  M 488.17 165.48
  A 1.21 1.19 28.2 0 0 488.64 167.00
  Q 542.30 199.72 596.24 232.79
  Q 598.46 234.15 600.63 232.73
  A 0.92 0.91 54.6 0 0 600.85 231.40
  Q 599.74 229.96 598.65 229.30
  Q 545.97 197.44 493.44 165.33
  Q 491.68 164.25 489.75 163.44
  Q 489.20 163.20 488.95 163.75
  L 488.17 165.48
  Z
  M 423.81 199.42
  C 414.53 193.83 405.17 187.69 396.44 182.65
  C 393.07 180.70 390.04 179.86 386.39 179.96
  A 0.45 0.45 0.0 0 0 386.17 180.79
  Q 463.85 228.28 541.42 275.53
  Q 542.65 276.28 543.82 274.62
  Q 544.82 273.19 543.33 272.27
  Q 484.05 235.75 423.81 199.42
  Z
  M 579.62 243.44
  L 484.29 185.19
  Q 483.79 184.89 483.30 185.19
  Q 481.82 186.09 481.92 187.88
  Q 481.95 188.39 482.39 188.66
  Q 527.37 216.13 572.36 243.55
  C 575.22 245.29 577.07 246.75 579.63 245.15
  A 1.01 1.00 44.7 0 0 579.62 243.44
  Z
  M 1066.53 290.00
  C 1065.26 287.66 1065.05 285.21 1063.50 284.27
  Q 986.93 237.44 910.38 190.59
  C 905.66 187.70 901.74 185.13 896.46 186.11
  Q 895.58 186.27 896.35 186.74
  L 1066.36 290.57
  Q 1066.76 290.81 1066.66 290.36
  Q 1066.62 290.17 1066.53 290.00
  Z
  M 939.55 187.66
  L 980.33 212.55
  Q 981.00 212.96 980.81 212.20
  L 979.82 208.07
  Q 979.71 207.61 979.31 207.36
  Q 962.99 197.38 946.63 187.44
  C 944.06 185.88 942.00 185.46 939.54 187.13
  Q 939.13 187.41 939.55 187.66
  Z
  M 279.02 188.12
  L 277.78 190.15
  A 0.89 0.89 0.0 0 0 278.07 191.37
  L 504.21 329.41
  A 4.51 1.95 31.4 0 0 509.08 330.10
  L 509.21 329.87
  A 4.51 1.95 31.4 0 0 506.38 325.86
  L 280.24 187.82
  A 0.89 0.89 0.0 0 0 279.02 188.12
  Z
  M 452.17 246.59
  Q 486.94 267.80 521.57 289.23
  C 523.75 290.58 527.44 293.13 529.79 290.87
  A 1.02 1.01 38.9 0 0 529.61 289.28
  Q 449.19 240.15 368.52 190.92
  C 367.07 190.04 364.62 189.37 363.60 190.82
  A 1.34 1.34 0.0 0 0 363.99 192.73
  Q 408.59 219.98 452.17 246.59
  Z
  M 1075.9490 319.2195
  A 1.67 1.67 0.0 0 0 1075.3937 316.9240
  L 879.0087 197.0501
  A 1.67 1.67 0.0 0 0 876.7132 197.6054
  L 876.4110 198.1005
  A 1.67 1.67 0.0 0 0 876.9663 200.3960
  L 1073.3513 320.2699
  A 1.67 1.67 0.0 0 0 1075.6468 319.7146
  L 1075.9490 319.2195
  Z
  M 340.52 203.87
  L 515.85 310.93
  A 0.73 0.73 0.0 0 0 516.78 310.78
  L 517.84 309.52
  Q 518.93 308.24 517.50 307.36
  Q 432.36 255.34 347.23 203.39
  C 344.76 201.89 342.97 201.95 340.54 203.25
  Q 339.99 203.55 340.52 203.87
  Z
  M 553.35 257.69
  C 555.42 258.96 558.70 261.18 560.76 258.75
  A 1.03 1.03 0.0 0 0 560.51 257.21
  L 470.60 202.33
  Q 470.09 202.01 469.55 202.26
  L 467.33 203.26
  A 0.86 0.86 0.0 0 0 467.23 204.78
  Q 510.56 231.32 553.35 257.69
  Z
  M 262.87 207.39
  L 502.38 353.63
  A 0.53 0.53 0.0 0 0 503.00 353.58
  C 506.77 350.35 498.64 346.80 496.51 345.50
  Q 380.97 274.91 265.40 204.38
  Q 263.62 203.29 262.40 205.76
  Q 261.89 206.79 262.87 207.39
  Z
  M 768.07 206.06
  Q 767.50 205.80 767.24 206.36
  L 766.32 208.32
  Q 765.99 209.01 766.64 209.42
  L 1084.96 403.77
  Q 1085.59 404.16 1085.84 403.46
  C 1087.09 400.00 1083.17 397.87 1080.62 396.31
  Q 927.09 302.78 773.71 209.00
  Q 771.56 207.69 768.07 206.06
  Z
  M 618.54 244.09
  C 571.03 267.32 525.89 305.32 521.49 361.99
  Q 518.46 400.90 542.71 429.86
  Q 543.06 430.28 543.69 431.26
  Q 544.31 432.25 545.07 432.42
  Q 546.42 432.74 546.00 431.42
  C 542.30 419.87 540.64 408.22 541.94 396.03
  C 544.28 374.11 552.58 356.08 568.90 340.64
  C 584.59 325.79 600.12 314.87 619.14 305.96
  Q 668.40 282.87 723.26 280.72
  Q 723.74 280.70 723.89 280.24
  L 746.57 208.60
  Q 746.77 207.96 746.11 207.97
  C 743.70 208.01 741.15 207.89 738.77 208.19
  Q 675.67 216.16 618.54 244.09
  Z
  M 883.77 225.50
  Q 875.00 220.16 866.43 214.50
  Q 862.82 212.12 859.40 214.17
  A 0.54 0.54 0.0 0 0 859.39 215.10
  L 1063.51 339.77
  A 0.96 0.95 23.9 0 0 1064.92 339.23
  C 1065.58 336.99 1064.57 335.81 1062.66 334.64
  Q 973.23 280.04 883.77 225.50
  Z
  M 993.25 220.04
  A 0.15 0.15 0.0 0 0 993.13 220.31
  L 1029.74 242.78
  A 0.89 0.88 11.6 0 0 1031.08 241.90
  C 1030.74 239.57 1030.10 238.55 1028.03 237.24
  Q 1017.39 230.45 1006.47 224.07
  Q 1004.25 222.77 1001.30 222.16
  Q 997.88 221.45 993.25 220.04
  Z
  M 253.01 222.46
  Q 252.68 222.29 252.39 222.52
  Q 251.05 223.59 251.17 224.83
  Q 251.26 225.77 252.51 226.53
  Q 376.93 302.50 501.36 378.46
  Q 501.76 378.71 501.89 378.25
  C 502.55 375.88 502.18 374.39 499.97 373.04
  Q 380.53 300.09 261.14 227.06
  Q 257.34 224.74 253.01 222.46
  Z
  M 1084.95 428.35
  C 1085.67 427.35 1086.55 425.61 1085.21 424.80
  Q 927.89 328.73 770.59 232.62
  Q 765.85 229.72 761.35 227.16
  A 1.03 1.02 -77.4 0 0 759.82 228.13
  C 760.05 231.20 760.90 231.37 763.59 233.01
  Q 922.20 329.86 1080.82 426.68
  Q 1082.48 427.70 1084.25 428.53
  Q 1084.68 428.73 1084.95 428.35
  Z
  M 507.96 405.94
  C 507.29 404.06 507.24 402.94 505.42 401.82
  Q 373.99 321.56 242.53 241.32
  Q 241.81 240.87 241.52 241.67
  L 240.85 243.58
  Q 240.65 244.15 241.11 244.54
  Q 243.36 246.42 244.73 247.26
  Q 374.61 326.51 504.46 405.82
  Q 506.03 406.77 507.30 406.83
  A 0.67 0.67 0.0 0 0 507.96 405.94
  Z
  M 1077.43 445.53
  L 755.03 248.66
  A 1.39 1.39 0.0 0 0 752.91 249.85
  Q 752.91 251.85 754.44 252.79
  Q 914.18 350.44 1073.98 448.00
  Q 1076.55 449.57 1077.75 446.45
  Q 1077.97 445.86 1077.43 445.53
  Z
  M 234.44 266.36
  C 333.35 326.99 432.47 387.30 531.58 447.87
  A 1.04 1.04 0.0 0 0 533.10 447.35
  Q 533.34 446.72 532.68 446.15
  Q 531.87 445.44 531.79 445.36
  Q 527.68 440.87 521.29 436.97
  Q 378.11 349.55 234.87 262.10
  A 1.25 1.25 0.0 0 0 233.20 262.45
  C 232.21 263.87 233.01 265.48 234.44 266.36
  Z
  M 1061.01 462.81
  A 0.95 0.95 0.0 0 0 1061.23 461.09
  L 748.35 270.05
  A 1.41 1.41 0.0 0 0 746.38 270.57
  Q 745.22 272.65 748.09 274.41
  Q 902.42 368.70 1056.77 462.96
  Q 1058.01 463.71 1061.01 462.81
  Z
  M 565.35 490.86
  Q 566.71 490.16 565.41 489.37
  L 226.53 282.46
  Q 225.95 282.10 225.62 282.70
  L 224.37 284.98
  Q 224.06 285.54 224.61 285.87
  Q 392.66 388.48 560.69 491.09
  C 562.84 492.41 563.35 491.87 565.35 490.86
  Z
  M 1039.19 477.58
  Q 1039.65 477.86 1041.26 478.57
  Q 1041.77 478.80 1042.17 478.40
  L 1043.52 477.07
  A 0.91 0.90 -51.7 0 0 1043.36 475.65
  L 741.21 291.14
  Q 740.57 290.75 740.23 291.42
  L 739.05 293.70
  Q 738.77 294.23 739.29 294.55
  Q 889.17 386.18 1039.19 477.58
  Z
  M 1157.81 575.58
  A 0.80 0.79 16.9 0 0 1159.02 574.94
  L 1159.10 572.33
  Q 1159.12 571.81 1158.67 571.53
  Q 940.07 438.03 721.49 304.49
  C 717.73 302.19 713.85 299.24 709.27 300.09
  A 0.79 0.79 0.0 0 0 709.00 301.54
  L 1157.81 575.58
  Z
  M 223.10 310.41
  C 330.73 376.35 438.56 442.00 546.30 507.75
  A 1.68 1.68 0.0 0 0 548.79 506.77
  C 549.29 505.04 547.93 504.17 546.53 503.32
  Q 383.38 403.68 220.13 304.02
  A 0.71 0.70 25.0 0 0 219.10 304.39
  C 217.96 307.69 220.97 309.11 223.10 310.41
  Z
  M 681.79 305.92
  Q 679.48 304.52 676.74 305.48
  A 0.96 0.96 0.0 0 0 676.56 307.20
  Q 908.68 448.92 1141.10 590.84
  C 1143.45 592.28 1145.41 592.40 1147.54 590.76
  Q 1147.93 590.47 1147.51 590.21
  Q 914.74 447.92 681.79 305.92
  Z
  M 648.51 340.93
  Q 623.25 341.11 598.00 341.14
  C 592.93 341.15 586.68 347.64 583.11 350.85
  A 0.64 0.63 -65.8 0 0 583.53 351.96
  Q 621.37 352.03 658.50 352.10
  Q 660.79 352.11 661.57 352.91
  Q 667.04 358.51 674.56 369.23
  Q 677.20 372.99 678.97 376.93
  A 0.79 0.78 77.8 0 1 678.26 378.04
  L 564.67 378.00
  A 0.81 0.80 8.2 0 0 563.90 378.57
  L 561.06 388.19
  A 0.63 0.63 0.0 0 0 561.67 389.00
  C 582.17 389.00 602.74 388.68 623.25 389.41
  Q 653.63 390.49 684.15 389.85
  Q 684.68 389.84 684.91 389.35
  Q 688.97 380.62 688.10 371.03
  C 687.78 367.42 686.78 365.62 684.73 362.77
  Q 678.21 353.67 673.13 348.11
  Q 658.03 331.57 640.69 317.36
  Q 640.28 317.02 639.79 317.23
  L 629.55 321.75
  A 1.14 1.14 0.0 0 0 629.30 323.68
  Q 638.18 330.78 646.37 338.62
  A 1.90 1.81 -9.5 0 0 646.87 338.96
  Q 647.94 339.46 648.78 340.25
  A 0.40 0.39 -23.5 0 1 648.51 340.93
  Z
  M 208.23 326.80
  L 532.08 524.56
  Q 533.36 525.34 534.35 524.21
  Q 535.10 523.36 535.08 522.27
  Q 535.07 521.79 534.66 521.54
  Q 374.89 423.98 215.11 326.41
  C 212.12 324.59 210.51 322.79 208.13 326.39
  Q 207.96 326.64 208.23 326.80
  Z
  M 685.04 337.82
  C 833.45 428.55 981.91 519.10 1130.55 609.87
  A 1.21 1.20 -60.9 0 0 1132.25 609.38
  L 1133.07 607.75
  Q 1133.43 607.03 1132.74 606.61
  L 673.53 326.22
  A 0.59 0.58 84.9 0 0 672.79 327.11
  C 676.47 331.27 680.08 334.78 685.04 337.82
  Z
  M 183.48 332.50
  C 178.66 329.55 174.24 326.10 168.32 327.09
  A 0.39 0.39 0.0 0 0 168.18 327.81
  L 522.04 543.88
  A 1.33 1.32 18.9 0 0 524.05 542.90
  C 524.39 539.98 522.45 539.56 520.41 538.31
  Q 351.95 435.40 183.48 332.50
  Z
  M 143.49 333.49
  C 140.53 331.69 137.89 330.47 134.30 331.10
  A 0.62 0.62 0.0 0 0 133.87 332.01
  Q 134.14 332.52 134.83 332.93
  Q 324.28 448.59 513.71 564.28
  Q 515.49 565.36 516.90 565.88
  Q 517.55 566.12 517.83 565.49
  L 518.59 563.80
  A 1.11 1.11 0.0 0 0 518.16 562.40
  Q 330.43 447.77 143.49 333.49
  Z
  M 121.22 345.52
  A 1.26 1.25 41.2 0 0 119.79 345.61
  C 117.85 347.16 119.18 348.83 120.81 349.82
  Q 317.66 470.02 514.47 590.29
  Q 517.56 592.18 520.93 593.96
  A 0.72 0.71 16.3 0 0 521.98 593.39
  C 522.17 591.08 520.99 589.61 518.98 588.38
  Q 320.49 467.07 121.22 345.52
  Z
  M 107.47 367.15
  C 241.18 448.78 374.89 530.41 508.57 612.07
  C 511.56 613.89 513.21 614.38 516.53 613.86
  A 0.75 0.75 0.0 0 0 516.80 612.48
  L 109.76 363.95
  A 1.05 1.04 -60.5 0 0 108.29 364.36
  L 107.25 366.34
  Q 106.98 366.85 107.47 367.15
  Z
  M 1157.52 651.80
  A 0.27 0.27 0.0 0 0 1157.85 651.38
  C 1154.06 647.60 1150.82 643.11 1146.20 640.29
  Q 926.48 506.14 706.88 372.04
  A 0.50 0.50 0.0 0 0 706.12 372.50
  C 706.27 375.03 707.12 376.78 709.42 378.18
  Q 933.29 514.90 1157.52 651.80
  Z
  M 107.75 392.72
  C 233.15 469.55 358.82 546.05 484.56 622.87
  A 0.91 0.91 0.0 0 0 485.86 622.49
  L 486.85 620.37
  Q 487.11 619.82 486.60 619.51
  L 104.35 386.11
  A 0.92 0.92 0.0 0 0 102.96 386.78
  C 102.50 390.40 105.23 391.18 107.75 392.72
  Z
  M 654.75 510.99
  Q 631.34 511.09 607.75 510.89
  Q 603.29 510.85 601.97 511.94
  Q 596.42 516.51 591.12 521.15
  A 0.49 0.49 0.0 0 0 591.44 522.01
  Q 626.62 522.02 662.00 521.84
  Q 663.66 521.83 665.24 522.22
  Q 665.73 522.35 666.01 522.77
  C 670.68 530.00 674.83 538.49 675.04 547.21
  A 0.78 0.78 0.0 0 1 674.26 548.01
  L 567.42 548.00
  A 2.39 2.37 12.9 0 0 565.28 549.33
  L 560.94 558.18
  A 0.57 0.57 0.0 0 0 561.45 559.00
  L 673.99 558.99
  A 1.05 1.04 6.9 0 1 675.01 560.28
  C 673.48 566.50 665.83 585.10 657.74 585.06
  Q 621.76 584.87 563.55 585.05
  Q 562.87 585.05 563.22 585.64
  Q 564.93 588.58 567.07 591.24
  C 569.98 594.87 570.85 596.13 575.52 596.04
  Q 594.19 595.68 645.57 596.14
  A 0.35 0.35 0.0 0 1 645.77 596.78
  Q 640.04 600.85 632.24 604.47
  C 601.49 618.78 568.27 626.66 534.75 630.99
  Q 518.93 633.03 502.91 633.03
  A 1.04 1.03 8.8 0 0 501.92 633.75
  L 480.07 699.24
  A 0.63 0.63 0.0 0 0 480.73 700.07
  Q 551.40 693.56 617.03 668.21
  Q 651.70 654.83 677.05 636.13
  Q 694.25 623.45 706.76 606.77
  C 721.62 586.94 728.76 561.24 724.50 536.71
  C 718.01 499.36 681.59 472.91 649.18 458.53
  A 0.46 0.46 0.0 0 1 649.08 457.75
  Q 662.06 447.85 674.49 437.25
  C 684.61 428.62 692.97 418.65 695.71 405.25
  Q 696.58 400.99 695.80 390.32
  Q 695.75 389.58 695.25 390.14
  C 693.79 391.79 693.09 394.45 692.35 395.88
  C 684.61 410.90 671.22 425.00 658.88 434.70
  Q 648.75 442.65 638.66 450.66
  Q 636.47 452.40 634.74 451.81
  Q 620.41 446.96 595.45 436.05
  Q 585.93 431.90 577.25 426.56
  A 0.31 0.31 0.0 0 1 577.41 425.99
  Q 614.50 425.93 651.50 426.03
  Q 655.76 426.04 658.18 423.54
  C 660.69 420.94 663.52 418.41 665.77 415.56
  Q 666.22 414.99 665.50 414.99
  L 560.76 415.00
  A 0.61 0.60 84.2 0 0 560.17 415.73
  C 564.42 435.79 576.54 452.92 592.12 465.88
  Q 607.13 478.35 612.76 481.52
  Q 635.10 494.10 654.96 510.39
  A 0.34 0.34 0.0 0 1 654.75 510.99
  Z
  M 1173.56 686.75
  Q 1173.99 686.94 1173.99 686.47
  L 1174.02 683.36
  Q 1174.03 682.75 1173.51 682.43
  L 711.92 400.59
  Q 711.53 400.35 711.20 400.67
  C 708.79 402.97 710.56 404.36 712.68 405.65
  Q 941.31 545.22 1169.89 684.86
  Q 1171.26 685.70 1173.56 686.75
  Z
  M 98.46 408.24
  Q 97.97 408.02 97.96 408.56
  L 97.93 411.59
  Q 97.93 412.24 98.48 412.58
  Q 286.99 527.68 475.49 642.80
  Q 476.75 643.57 477.35 643.72
  A 1.87 1.86 -18.8 0 0 478.96 640.45
  Q 476.71 638.66 473.33 636.60
  Q 286.61 522.87 99.98 408.97
  Q 99.67 408.78 98.46 408.24
  Z
  M 705.33 422.03
  A 0.77 0.76 28.9 0 0 704.25 422.34
  L 703.36 424.09
  A 0.80 0.79 36.1 0 0 703.51 425.01
  Q 704.81 426.31 705.36 426.65
  Q 936.35 567.68 1167.69 708.94
  A 0.77 0.77 0.0 0 0 1168.84 708.48
  L 1169.47 706.04
  Q 1169.60 705.52 1169.14 705.23
  L 705.33 422.03
  Z
  M 1169.0292 732.8571
  A 1.94 1.94 0.0 0 0 1168.3841 730.1905
  L 693.1782 440.1236
  A 1.94 1.94 0.0 0 0 690.5116 440.7687
  L 690.4908 440.8029
  A 1.94 1.94 0.0 0 0 691.1359 443.4695
  L 1166.3418 733.5364
  A 1.94 1.94 0.0 0 0 1169.0084 732.8913
  L 1169.0292 732.8571
  Z
  M 129.96 457.29
  C 242.95 526.17 355.86 595.20 468.79 664.16
  Q 470.22 665.03 470.92 664.92
  Q 472.11 664.73 472.60 662.73
  A 1.03 1.02 -67.4 0 0 472.14 661.61
  L 110.27 440.65
  Q 108.70 439.69 109.84 441.13
  C 112.32 444.23 114.60 447.31 118.00 449.64
  Q 122.88 452.97 129.96 457.29
  Z
  M 1152.69 746.06
  Q 933.00 612.01 715.16 479.16
  Q 714.18 478.56 713.33 478.18
  A 0.50 0.49 -7.3 0 0 712.74 478.94
  C 716.73 483.88 720.72 486.96 726.65 490.58
  Q 936.50 618.70 1146.35 746.83
  C 1148.66 748.25 1150.49 747.81 1152.68 746.64
  A 0.33 0.33 0.0 0 0 1152.69 746.06
  Z
  M 465.0287 684.8083
  A 1.80 1.80 0.0 0 0 464.4301 682.3341
  L 138.0323 483.1000
  A 1.80 1.80 0.0 0 0 135.5581 483.6986
  L 135.3913 483.9717
  A 1.80 1.80 0.0 0 0 135.9899 486.4459
  L 462.3877 685.6800
  A 1.80 1.80 0.0 0 0 464.8619 685.0814
  L 465.0287 684.8083
  Z
  M 1095.43 486.49
  L 1113.60 497.69
  A 0.39 0.39 0.0 0 0 1114.19 497.29
  Q 1114.11 496.85 1113.78 496.47
  C 1109.20 491.09 1103.23 485.10 1095.54 486.03
  Q 1094.82 486.11 1095.43 486.49
  Z
  M 552.09 524.08
  C 540.02 537.58 532.51 552.51 532.82 570.91
  Q 533.20 593.91 548.99 609.48
  Q 549.32 609.80 549.76 609.72
  L 561.75 607.69
  A 0.61 0.60 64.4 0 0 562.10 606.69
  C 554.60 598.33 546.68 588.93 544.71 577.29
  C 541.67 559.44 551.30 542.47 562.87 529.87
  Q 580.07 511.11 600.48 495.24
  A 0.78 0.78 0.0 0 0 600.44 493.98
  L 592.46 488.46
  A 2.66 2.65 -47.2 0 0 589.27 488.58
  Q 569.47 504.65 552.09 524.08
  Z
  M 105.29 493.13
  L 456.91 707.84
  A 0.66 0.65 -66.7 0 0 457.88 707.45
  Q 458.73 704.43 456.17 702.86
  Q 283.43 597.32 110.67 491.82
  Q 108.04 490.22 105.25 492.31
  Q 104.66 492.75 105.29 493.13
  Z
  M 1070.67 492.63
  Q 1068.14 491.11 1065.18 492.14
  A 0.74 0.74 0.0 0 0 1065.04 493.47
  L 1152.44 546.83
  A 0.25 0.25 0.0 0 0 1152.78 546.49
  Q 1151.54 544.43 1149.79 543.43
  Q 1140.16 537.93 1132.45 531.11
  Q 1128.62 527.73 1125.33 525.72
  Q 1098.08 509.03 1070.67 492.63
  Z
  M 92.03 506.70
  Q 90.61 507.00 90.11 508.70
  Q 89.95 509.23 90.42 509.52
  L 685.18 872.67
  A 0.55 0.54 16.2 0 0 686.01 872.22
  L 686.03 869.09
  Q 686.04 868.60 685.62 868.34
  Q 390.00 687.85 94.38 507.34
  Q 93.00 506.50 92.03 506.70
  Z
  M 740.85 520.45
  Q 739.66 519.90 739.88 521.19
  C 740.54 525.04 743.31 526.21 746.37 528.08
  Q 941.59 647.27 1137.07 766.62
  Q 1137.85 767.10 1138.00 766.20
  Q 1138.55 762.99 1135.43 761.09
  Q 939.86 641.62 744.24 522.21
  Q 742.83 521.35 740.85 520.45
  Z
  M 461.47 760.27
  Q 466.64 762.14 471.74 763.71
  A 0.22 0.21 69.1 0 0 471.91 763.32
  L 85.72 527.52
  Q 85.23 527.22 85.07 527.76
  C 84.35 530.15 84.87 531.59 87.06 532.92
  Q 268.43 643.69 449.71 754.62
  Q 455.31 758.04 461.47 760.27
  Z
  M 1130.00 787.58
  A 0.69 0.69 0.0 0 0 1130.97 787.28
  L 1131.94 785.21
  Q 1132.25 784.55 1131.63 784.17
  L 745.24 548.25
  Q 744.88 548.04 744.80 548.44
  Q 744.00 552.09 746.43 553.58
  Q 924.94 662.56 1103.33 771.71
  Q 1116.49 779.76 1130.00 787.58
  Z
  M 78.31 553.05
  C 180.52 615.45 282.68 677.83 384.86 740.24
  C 388.71 742.59 391.50 743.70 395.71 742.88
  A 0.30 0.30 0.0 0 0 395.81 742.33
  Q 240.42 647.44 85.30 552.72
  C 82.82 551.21 80.67 550.52 78.28 552.23
  A 0.49 0.49 0.0 0 0 78.31 553.05
  Z
  M 65.55 566.14
  Q 64.52 565.51 64.12 566.65
  C 63.06 569.76 65.42 570.64 67.57 571.95
  Q 215.84 662.50 364.12 753.03
  Q 364.65 753.36 365.15 752.99
  L 367.58 751.18
  Q 368.04 750.83 367.55 750.53
  L 65.55 566.14
  Z
  M 743.96 572.93
  A 1.36 1.36 0.0 0 0 741.90 574.12
  L 741.93 575.65
  Q 741.94 576.25 742.46 576.57
  Q 923.81 687.36 1105.14 798.18
  Q 1108.12 800.00 1110.44 798.16
  A 0.93 0.93 0.0 0 0 1110.35 796.64
  L 743.96 572.93
  Z
  M 348.70 765.74
  A 0.89 0.89 0.0 0 0 348.51 764.37
  L 65.17 591.35
  A 0.89 0.89 0.0 0 0 63.82 592.16
  L 63.96 594.77
  A 0.89 0.89 0.0 0 0 64.39 595.48
  L 346.09 767.49
  A 0.89 0.89 0.0 0 0 347.21 767.34
  L 348.70 765.74
  Z
  M 1093.24 811.66
  L 737.06 594.17
  A 1.40 1.39 34.4 0 0 735.23 594.51
  C 733.38 596.93 737.05 598.75 738.56 599.68
  Q 914.38 707.02 1090.17 814.40
  C 1091.62 815.28 1093.02 815.09 1093.78 813.56
  A 1.45 1.45 0.0 0 0 1093.24 811.66
  Z
  M 1081.4167 831.3741
  A 1.28 1.28 0.0 0 0 1080.9910 829.6147
  L 726.5114 613.2394
  A 1.28 1.28 0.0 0 0 724.7519 613.6650
  L 724.0433 614.8259
  A 1.28 1.28 0.0 0 0 724.4690 616.5853
  L 1078.9486 832.9606
  A 1.28 1.28 0.0 0 0 1080.7081 832.5350
  L 1081.4167 831.3741
  Z
  M 333.45 780.53
  Q 199.25 698.81 65.22 616.82
  C 63.88 616.00 62.43 614.87 60.88 615.04
  A 1.79 1.79 0.0 0 0 60.14 618.35
  L 337.25 787.55
  Q 337.65 787.80 337.80 787.35
  C 339.15 783.20 336.84 782.60 333.45 780.53
  Z
  M 1050.55 836.53
  L 712.58 630.17
  A 1.40 1.40 0.0 0 0 710.94 630.30
  Q 708.68 632.23 712.13 634.34
  Q 876.16 734.63 1040.25 834.83
  C 1043.85 837.03 1046.49 837.57 1050.48 836.89
  Q 1050.99 836.80 1050.55 836.53
  Z
  M 53.30 635.07
  A 0.86 0.85 -67.1 0 0 52.03 635.59
  C 51.20 638.75 53.27 639.60 55.96 641.25
  Q 199.47 728.90 343.44 816.80
  Q 344.30 817.32 344.80 816.45
  C 345.89 814.56 344.69 813.00 343.00 811.96
  Q 198.46 723.61 53.30 635.07
  Z
  M 1004.44 833.49
  Q 851.03 740.26 697.88 646.62
  Q 694.63 644.63 692.98 647.71
  Q 692.76 648.12 693.16 648.36
  L 1001.04 836.36
  Q 1001.59 836.69 1002.16 836.41
  L 1005.48 834.84
  Q 1005.92 834.63 1005.55 834.31
  Q 1005.00 833.83 1004.44 833.49
  Z
  M 944.33 822.54
  Q 941.37 820.79 932.75 815.53
  Q 805.62 737.91 678.52 660.23
  Q 676.23 658.83 674.44 660.18
  A 1.29 1.29 0.0 0 0 674.53 662.31
  Q 679.65 665.52 684.50 668.48
  Q 806.00 742.72 927.52 816.93
  Q 932.98 820.26 944.16 822.94
  A 0.22 0.22 0.0 0 0 944.33 822.54
  Z
  M 652.55 673.11
  Q 651.89 673.49 652.44 674.00
  Q 654.47 675.91 657.18 677.56
  Q 733.04 723.65 808.81 769.90
  C 812.36 772.07 814.86 772.71 818.77 771.87
  A 0.21 0.21 0.0 0 0 818.84 771.48
  Q 738.17 722.13 657.61 673.02
  C 655.60 671.79 654.45 672.04 652.55 673.11
  Z
  M 80.52 677.13
  A 1.02 1.02 0.0 0 0 79.05 677.60
  L 78.35 679.28
  Q 78.12 679.83 78.57 680.21
  Q 80.18 681.54 82.68 683.06
  Q 141.42 718.86 334.26 836.71
  Q 336.05 837.81 338.32 837.96
  A 1.55 1.55 0.0 0 0 339.22 835.09
  L 80.52 677.13
  Z
  M 635.55 684.87
  C 633.25 683.46 630.52 682.28 628.46 684.27
  Q 627.84 684.87 628.58 685.32
  Q 700.16 729.03 771.04 772.31
  C 773.63 773.90 775.80 774.59 778.59 773.79
  A 0.75 0.74 52.6 0 0 778.77 772.44
  Q 707.22 728.76 635.55 684.87
  Z
  M 291.43 831.37
  L 63.51 692.21
  A 0.52 0.51 30.4 0 0 62.79 692.39
  L 61.42 694.83
  Q 61.14 695.33 61.63 695.63
  Q 173.22 763.80 284.83 831.94
  Q 287.74 833.71 291.42 831.69
  Q 291.70 831.54 291.43 831.37
  Z
  M 718.02 765.17
  C 720.95 766.93 723.50 767.59 726.70 766.99
  Q 727.82 766.78 726.85 766.19
  Q 666.90 729.60 607.75 693.49
  Q 605.14 691.90 602.44 693.88
  Q 601.99 694.20 602.43 694.54
  C 605.80 697.09 610.07 699.39 612.91 701.14
  Q 665.30 733.44 718.02 765.17
  Z
  M 581.06 702.82
  C 578.64 701.35 576.76 700.79 574.36 702.35
  Q 573.75 702.76 574.37 703.14
  L 692.96 775.57
  Q 693.52 775.92 694.00 775.48
  L 695.29 774.32
  A 1.25 1.24 40.0 0 0 695.11 772.33
  Q 638.09 737.30 581.06 702.82
  Z
  M 686.48 796.75
  A 0.33 0.33 0.0 0 0 686.95 796.47
  L 687.06 793.53
  A 1.17 1.17 0.0 0 0 686.50 792.48
  Q 619.24 751.42 551.99 710.37
  C 549.60 708.91 547.91 708.65 545.28 709.20
  A 0.67 0.66 67.6 0 0 544.86 710.21
  C 545.59 711.36 546.81 711.79 547.83 712.41
  Q 613.97 752.76 680.04 793.21
  Q 682.83 794.92 686.48 796.75
  Z
  M 263.84 844.51
  A 0.77 0.76 -51.7 0 0 264.78 844.39
  Q 266.15 843.04 265.79 841.83
  Q 265.57 841.06 264.18 840.21
  Q 160.42 776.83 56.64 713.47
  Q 56.21 713.21 56.05 713.69
  C 55.16 716.44 56.11 717.68 58.46 719.12
  Q 160.95 781.92 263.84 844.51
  Z
  M 525.60 719.63
  C 522.17 717.54 517.40 714.00 513.22 715.07
  Q 511.28 715.56 512.99 716.61
  L 683.70 820.83
  A 0.84 0.83 -68.6 0 0 684.95 820.28
  C 685.48 817.82 684.62 816.82 682.52 815.53
  Q 604.03 767.62 525.60 719.63
  Z
  M 679.63 839.25
  Q 582.67 779.98 485.66 720.81
  C 483.27 719.36 480.69 718.29 478.18 719.16
  Q 476.46 719.76 478.01 720.70
  L 682.28 845.44
  Q 682.68 845.68 682.83 845.24
  C 684.11 841.42 682.18 840.81 679.63 839.25
  Z
  M 87.20 757.57
  L 70.24 747.30
  A 0.18 0.18 0.0 0 0 69.99 747.37
  L 69.97 747.40
  A 9.93 1.28 31.2 0 0 77.80 753.64
  L 78.08 753.80
  A 9.93 1.28 31.2 0 0 87.24 757.85
  L 87.26 757.82
  A 0.18 0.18 0.0 0 0 87.20 757.57
  Z
  M 106.27 769.55
  C 108.40 771.87 108.37 775.08 111.04 776.71
  Q 180.58 819.23 250.17 861.68
  A 0.65 0.65 0.0 0 0 250.97 861.59
  L 252.66 859.91
  Q 253.09 859.48 252.66 859.04
  Q 251.41 857.76 249.88 856.83
  Q 178.08 813.10 106.44 769.35
  A 0.13 0.13 0.0 0 0 106.27 769.55
  Z
  M 696.32 903.69
  Q 695.17 899.65 693.72 898.77
  Q 601.71 842.56 508.98 785.95
  A 0.42 0.42 0.0 0 0 508.42 786.56
  L 512.81 792.75
  A 1.56 1.45 85.0 0 0 513.24 793.14
  L 696.07 904.78
  Q 696.72 905.18 696.68 904.41
  Q 696.65 903.96 696.32 903.69
  Z
  M 127.44 810.83
  C 131.14 812.11 135.95 817.43 139.90 819.84
  Q 182.17 845.67 224.48 871.44
  C 227.15 873.06 229.65 873.46 232.55 872.89
  A 0.52 0.52 0.0 0 0 232.72 871.94
  L 108.95 796.36
  Q 108.57 796.13 108.56 796.57
  C 108.51 798.99 108.86 800.29 110.86 801.84
  Q 118.42 807.72 127.44 810.83
  Z
  M 710.65 938.79
  A 0.17 0.17 0.0 0 0 710.89 938.63
  C 710.69 935.61 709.51 933.87 706.83 932.23
  Q 611.25 873.86 515.66 815.50
  Q 515.25 815.25 515.09 815.71
  C 514.19 818.34 515.09 819.75 517.43 821.18
  Q 610.70 878.12 703.87 935.20
  Q 706.94 937.08 710.65 938.79
  Z
  M 979.21 843.89
  L 957.99 830.96
  A 0.51 0.50 -4.6 0 0 957.34 831.72
  C 961.02 835.96 965.57 840.62 970.64 842.85
  Q 974.22 844.43 978.64 845.33
  A 0.79 0.79 0.0 0 0 979.21 843.89
  Z
  M 169.03 858.24
  L 141.74 841.65
  A 0.15 0.15 0.0 0 0 141.53 841.70
  L 141.51 841.74
  A 4.42 4.02 31.3 0 0 143.20 847.47
  L 163.19 859.63
  A 4.42 4.02 31.3 0 0 169.06 858.49
  L 169.08 858.45
  A 0.15 0.15 0.0 0 0 169.03 858.24
  Z
  M 517.68 842.25
  A 0.51 0.50 7.5 0 0 516.93 842.82
  C 518.33 847.55 520.73 848.68 524.67 851.09
  Q 617.45 907.73 710.23 964.35
  Q 710.62 964.59 710.91 964.23
  Q 713.06 961.50 709.93 959.59
  Q 614.15 901.05 517.68 842.25
  Z
  M 523.37 871.13
  A 0.88 0.88 0.0 0 0 522.08 871.59
  C 521.42 873.48 522.14 874.81 523.79 875.87
  Q 531.92 881.10 540.18 886.12
  Q 613.72 930.94 687.23 975.82
  Q 690.80 977.99 693.93 976.77
  Q 695.41 976.20 694.06 975.37
  L 523.37 871.13
  Z
  M 517.97 893.30
  Q 517.24 892.86 517.04 893.69
  L 516.41 896.29
  Q 516.26 896.86 516.77 897.17
  Q 582.61 937.34 648.42 977.57
  Q 652.28 979.93 657.34 978.82
  Q 657.83 978.71 657.40 978.45
  L 517.97 893.30
  Z
  M 510.84 914.40
  Q 510.36 914.11 510.10 914.61
  L 509.02 916.70
  A 0.82 0.82 0.0 0 0 509.24 917.73
  Q 511.05 919.13 512.99 920.32
  Q 556.94 947.14 600.87 974.01
  C 604.14 976.00 606.83 976.65 610.41 975.91
  Q 611.27 975.74 610.52 975.28
  L 510.84 914.40
  Z
  M 499.70 936.25
  Q 499.15 937.30 500.16 937.92
  Q 528.85 955.50 558.51 973.56
  C 562.11 975.75 564.74 976.68 568.68 975.87
  A 0.34 0.34 0.0 0 0 568.79 975.24
  L 502.02 934.47
  A 1.15 1.15 0.0 0 0 500.41 934.91
  L 499.70 936.25
  Z
  M 497.20 957.01
  A 0.82 0.82 0.0 0 0 495.95 957.62
  C 495.69 960.07 497.24 961.54 499.35 962.85
  Q 510.70 969.89 522.12 976.85
  C 525.30 978.78 527.96 979.70 531.41 978.82
  Q 532.44 978.56 531.53 978.00
  L 497.20 957.01
  Z"
/>
<path fill="#ffffff" d="
  M 831.54 197.74
  Q 829.77 197.00 828.35 196.13
  Q 718.82 129.27 609.29 62.42
  Q 607.37 61.25 606.40 60.59
  Q 605.72 60.13 606.53 60.01
  Q 611.65 59.23 616.72 62.33
  Q 724.16 127.98 831.63 193.58
  Q 832.07 193.85 832.06 194.36
  L 831.98 197.45
  A 0.32 0.32 0.0 0 1 831.54 197.74
  Z"
/>
<path fill="#ffffff" d="
  M 658.97 64.84
  C 661.14 65.56 665.67 66.73 668.23 68.30
  Q 682.75 77.18 697.27 86.07
  C 701.30 88.53 703.71 91.35 706.14 95.09
  A 0.44 0.44 0.0 0 1 705.54 95.71
  L 653.67 64.04
  Q 652.54 63.35 653.85 63.56
  Q 656.30 63.96 658.97 64.84
  Z"
/>
<path fill="#ffffff" d="
  M 1076.68 371.49
  Q 1077.50 373.76 1075.44 372.50
  L 576.64 67.94
  Q 576.20 67.66 576.58 67.31
  Q 579.13 64.88 582.03 66.65
  Q 827.25 216.36 1072.56 365.94
  Q 1075.28 367.60 1076.68 371.49
  Z"
/>
<path fill="#ffffff" d="
  M 739.83 188.45
  A 0.10 0.10 0.0 0 1 739.83 188.62
  C 737.12 190.11 735.10 190.17 732.33 188.47
  Q 644.32 134.71 556.29 80.99
  A 0.55 0.55 0.0 0 1 556.21 80.10
  L 558.22 78.36
  Q 558.76 77.90 559.37 78.27
  L 739.83 188.45
  Z"
/>
<path fill="#ffffff" d="
  M 696.44 191.99
  C 646.17 161.34 595.75 130.89 545.72 99.87
  A 1.99 1.99 0.0 0 1 544.78 98.16
  Q 544.80 96.47 545.78 96.11
  Q 546.46 95.86 547.57 96.54
  Q 626.50 144.70 705.84 193.18
  A 0.88 0.88 0.0 0 1 705.62 194.77
  C 702.24 195.73 699.95 194.13 696.44 191.99
  Z"
/>
<path fill="#ffffff" d="
  M 765.59 106.33
  C 777.52 107.34 789.48 116.00 797.19 124.89
  A 0.56 0.56 0.0 0 1 796.47 125.73
  L 765.43 106.81
  Q 764.47 106.23 765.59 106.33
  Z"
/>
<path fill="#ffffff" d="
  M 830.79 171.42
  Q 830.96 171.74 830.60 171.65
  Q 828.65 171.12 826.81 169.99
  Q 776.16 138.95 725.55 107.81
  Q 724.92 107.42 725.66 107.45
  C 730.23 107.59 733.50 108.19 737.61 110.70
  Q 780.05 136.62 822.49 162.52
  C 826.77 165.13 828.64 167.21 830.79 171.42
  Z"
/>
<path fill="#ffffff" d="
  M 676.37 201.90
  C 674.03 203.60 672.21 202.70 670.10 201.41
  Q 604.68 161.45 539.25 121.50
  Q 538.74 121.19 539.03 120.67
  L 540.27 118.41
  Q 540.62 117.76 541.25 118.15
  L 676.32 200.59
  Q 677.34 201.21 676.37 201.90
  Z"
/>
<path fill="#ffffff" d="
  M 519.64 130.61
  Q 584.41 169.76 649.46 209.71
  Q 650.29 210.22 649.45 210.73
  C 647.60 211.86 645.65 211.93 643.68 210.72
  Q 578.07 170.72 512.54 130.60
  Q 512.14 130.36 512.56 130.15
  C 515.24 128.85 517.01 129.02 519.64 130.61
  Z"
/>
<path fill="#ffffff" d="
  M 498.91 143.18
  L 623.20 219.12
  A 1.57 1.57 0.0 0 1 622.17 222.01
  Q 619.75 221.68 617.77 220.47
  Q 558.31 184.07 498.81 147.74
  C 497.50 146.94 495.55 146.08 496.06 144.30
  A 1.93 1.92 23.5 0 1 498.91 143.18
  Z"
/>
<path fill="#ffffff" d="
  M 488.17 165.48
  L 488.95 163.75
  Q 489.20 163.20 489.75 163.44
  Q 491.68 164.25 493.44 165.33
  Q 545.97 197.44 598.65 229.30
  Q 599.74 229.96 600.85 231.40
  A 0.92 0.91 54.6 0 1 600.63 232.73
  Q 598.46 234.15 596.24 232.79
  Q 542.30 199.72 488.64 167.00
  A 1.21 1.19 28.2 0 1 488.17 165.48
  Z"
/>
<path fill="#ffffff" d="
  M 423.81 199.42
  Q 484.05 235.75 543.33 272.27
  Q 544.82 273.19 543.82 274.62
  Q 542.65 276.28 541.42 275.53
  Q 463.85 228.28 386.17 180.79
  A 0.45 0.45 0.0 0 1 386.39 179.96
  C 390.04 179.86 393.07 180.70 396.44 182.65
  C 405.17 187.69 414.53 193.83 423.81 199.42
  Z"
/>
<path fill="#ffffff" d="
  M 579.62 243.44
  A 1.01 1.00 44.7 0 1 579.63 245.15
  C 577.07 246.75 575.22 245.29 572.36 243.55
  Q 527.37 216.13 482.39 188.66
  Q 481.95 188.39 481.92 187.88
  Q 481.82 186.09 483.30 185.19
  Q 483.79 184.89 484.29 185.19
  L 579.62 243.44
  Z"
/>
<path fill="#ffffff" d="
  M 1066.53 290.00
  Q 1066.62 290.17 1066.66 290.36
  Q 1066.76 290.81 1066.36 290.57
  L 896.35 186.74
  Q 895.58 186.27 896.46 186.11
  C 901.74 185.13 905.66 187.70 910.38 190.59
  Q 986.93 237.44 1063.50 284.27
  C 1065.05 285.21 1065.26 287.66 1066.53 290.00
  Z"
/>
<path fill="#ffffff" d="
  M 980.33 212.55
  L 939.55 187.66
  Q 939.13 187.41 939.54 187.13
  C 942.00 185.46 944.06 185.88 946.63 187.44
  Q 962.99 197.38 979.31 207.36
  Q 979.71 207.61 979.82 208.07
  L 980.81 212.20
  Q 981.00 212.96 980.33 212.55
  Z"
/>
<path fill="#ffffff" d="
  M 279.02 188.12
  A 0.89 0.89 0.0 0 1 280.24 187.82
  L 506.38 325.86
  A 4.51 1.95 31.4 0 1 509.21 329.87
  L 509.08 330.10
  A 4.51 1.95 31.4 0 1 504.21 329.41
  L 278.07 191.37
  A 0.89 0.89 0.0 0 1 277.78 190.15
  L 279.02 188.12
  Z"
/>
<path fill="#ffffff" d="
  M 452.17 246.59
  Q 408.59 219.98 363.99 192.73
  A 1.34 1.34 0.0 0 1 363.60 190.82
  C 364.62 189.37 367.07 190.04 368.52 190.92
  Q 449.19 240.15 529.61 289.28
  A 1.02 1.01 38.9 0 1 529.79 290.87
  C 527.44 293.13 523.75 290.58 521.57 289.23
  Q 486.94 267.80 452.17 246.59
  Z"
/>
<rect fill="#ffffff" x="-116.71" y="-1.96" transform="translate(976.18,258.66) rotate(31.4)" width="233.42" height="3.92" rx="1.67"/>
<path fill="#ffffff" d="
  M 515.85 310.93
  L 340.52 203.87
  Q 339.99 203.55 340.54 203.25
  C 342.97 201.95 344.76 201.89 347.23 203.39
  Q 432.36 255.34 517.50 307.36
  Q 518.93 308.24 517.84 309.52
  L 516.78 310.78
  A 0.73 0.73 0.0 0 1 515.85 310.93
  Z"
/>
<path fill="#ffffff" d="
  M 560.76 258.75
  C 558.70 261.18 555.42 258.96 553.35 257.69
  Q 510.56 231.32 467.23 204.78
  A 0.86 0.86 0.0 0 1 467.33 203.26
  L 469.55 202.26
  Q 470.09 202.01 470.60 202.33
  L 560.51 257.21
  A 1.03 1.03 0.0 0 1 560.76 258.75
  Z"
/>
<path fill="#ffffff" d="
  M 502.38 353.63
  L 262.87 207.39
  Q 261.89 206.79 262.40 205.76
  Q 263.62 203.29 265.40 204.38
  Q 380.97 274.91 496.51 345.50
  C 498.64 346.80 506.77 350.35 503.00 353.58
  A 0.53 0.53 0.0 0 1 502.38 353.63
  Z"
/>
<path fill="#ffffff" d="
  M 768.07 206.06
  Q 771.56 207.69 773.71 209.00
  Q 927.09 302.78 1080.62 396.31
  C 1083.17 397.87 1087.09 400.00 1085.84 403.46
  Q 1085.59 404.16 1084.96 403.77
  L 766.64 209.42
  Q 765.99 209.01 766.32 208.32
  L 767.24 206.36
  Q 767.50 205.80 768.07 206.06
  Z"
/>
<path fill="#ffffff" d="
  M 521.49 361.99
  C 525.89 305.32 571.03 267.32 618.54 244.09
  Q 675.67 216.16 738.77 208.19
  C 741.15 207.89 743.70 208.01 746.11 207.97
  Q 746.77 207.96 746.57 208.60
  L 723.89 280.24
  Q 723.74 280.70 723.26 280.72
  Q 668.40 282.87 619.14 305.96
  C 600.12 314.87 584.59 325.79 568.90 340.64
  C 552.58 356.08 544.28 374.11 541.94 396.03
  C 540.64 408.22 542.30 419.87 546.00 431.42
  Q 546.42 432.74 545.07 432.42
  Q 544.31 432.25 543.69 431.26
  Q 543.06 430.28 542.71 429.86
  Q 518.46 400.90 521.49 361.99
  Z"
/>
<path fill="#ffffff" d="
  M 883.77 225.50
  Q 973.23 280.04 1062.66 334.64
  C 1064.57 335.81 1065.58 336.99 1064.92 339.23
  A 0.96 0.95 23.9 0 1 1063.51 339.77
  L 859.39 215.10
  A 0.54 0.54 0.0 0 1 859.40 214.17
  Q 862.82 212.12 866.43 214.50
  Q 875.00 220.16 883.77 225.50
  Z"
/>
<path fill="#ffffff" d="
  M 993.25 220.04
  Q 997.88 221.45 1001.30 222.16
  Q 1004.25 222.77 1006.47 224.07
  Q 1017.39 230.45 1028.03 237.24
  C 1030.10 238.55 1030.74 239.57 1031.08 241.90
  A 0.89 0.88 11.6 0 1 1029.74 242.78
  L 993.13 220.31
  A 0.15 0.15 0.0 0 1 993.25 220.04
  Z"
/>
<path fill="#ffffff" d="
  M 253.01 222.46
  Q 257.34 224.74 261.14 227.06
  Q 380.53 300.09 499.97 373.04
  C 502.18 374.39 502.55 375.88 501.89 378.25
  Q 501.76 378.71 501.36 378.46
  Q 376.93 302.50 252.51 226.53
  Q 251.26 225.77 251.17 224.83
  Q 251.05 223.59 252.39 222.52
  Q 252.68 222.29 253.01 222.46
  Z"
/>
<path fill="#ffffff" d="
  M 1085.21 424.80
  C 1086.55 425.61 1085.67 427.35 1084.95 428.35
  Q 1084.68 428.73 1084.25 428.53
  Q 1082.48 427.70 1080.82 426.68
  Q 922.20 329.86 763.59 233.01
  C 760.90 231.37 760.05 231.20 759.82 228.13
  A 1.03 1.02 -77.4 0 1 761.35 227.16
  Q 765.85 229.72 770.59 232.62
  Q 927.89 328.73 1085.21 424.80
  Z"
/>
<path fill="#ffffff" d="
  M 507.96 405.94
  A 0.67 0.67 0.0 0 1 507.30 406.83
  Q 506.03 406.77 504.46 405.82
  Q 374.61 326.51 244.73 247.26
  Q 243.36 246.42 241.11 244.54
  Q 240.65 244.15 240.85 243.58
  L 241.52 241.67
  Q 241.81 240.87 242.53 241.32
  Q 373.99 321.56 505.42 401.82
  C 507.24 402.94 507.29 404.06 507.96 405.94
  Z"
/>
<path fill="#ffffff" d="
  M 755.03 248.66
  L 1077.43 445.53
  Q 1077.97 445.86 1077.75 446.45
  Q 1076.55 449.57 1073.98 448.00
  Q 914.18 350.44 754.44 252.79
  Q 752.91 251.85 752.91 249.85
  A 1.39 1.39 0.0 0 1 755.03 248.66
  Z"
/>
<path fill="#ffffff" d="
  M 531.58 447.87
  C 432.47 387.30 333.35 326.99 234.44 266.36
  C 233.01 265.48 232.21 263.87 233.20 262.45
  A 1.25 1.25 0.0 0 1 234.87 262.10
  Q 378.11 349.55 521.29 436.97
  Q 527.68 440.87 531.79 445.36
  Q 531.87 445.44 532.68 446.15
  Q 533.34 446.72 533.10 447.35
  A 1.04 1.04 0.0 0 1 531.58 447.87
  Z"
/>
<path fill="#ffffff" d="
  M 1061.01 462.81
  Q 1058.01 463.71 1056.77 462.96
  Q 902.42 368.70 748.09 274.41
  Q 745.22 272.65 746.38 270.57
  A 1.41 1.41 0.0 0 1 748.35 270.05
  L 1061.23 461.09
  A 0.95 0.95 0.0 0 1 1061.01 462.81
  Z"
/>
<path fill="#ffffff" d="
  M 565.35 490.86
  C 563.35 491.87 562.84 492.41 560.69 491.09
  Q 392.66 388.48 224.61 285.87
  Q 224.06 285.54 224.37 284.98
  L 225.62 282.70
  Q 225.95 282.10 226.53 282.46
  L 565.41 489.37
  Q 566.71 490.16 565.35 490.86
  Z"
/>
<path fill="#ffffff" d="
  M 1039.19 477.58
  Q 889.17 386.18 739.29 294.55
  Q 738.77 294.23 739.05 293.70
  L 740.23 291.42
  Q 740.57 290.75 741.21 291.14
  L 1043.36 475.65
  A 0.91 0.90 -51.7 0 1 1043.52 477.07
  L 1042.17 478.40
  Q 1041.77 478.80 1041.26 478.57
  Q 1039.65 477.86 1039.19 477.58
  Z"
/>
<path fill="#ffffff" d="
  M 1157.81 575.58
  L 709.00 301.54
  A 0.79 0.79 0.0 0 1 709.27 300.09
  C 713.85 299.24 717.73 302.19 721.49 304.49
  Q 940.07 438.03 1158.67 571.53
  Q 1159.12 571.81 1159.10 572.33
  L 1159.02 574.94
  A 0.80 0.79 16.9 0 1 1157.81 575.58
  Z"
/>
<path fill="#ffffff" d="
  M 546.30 507.75
  C 438.56 442.00 330.73 376.35 223.10 310.41
  C 220.97 309.11 217.96 307.69 219.10 304.39
  A 0.71 0.70 25.0 0 1 220.13 304.02
  Q 383.38 403.68 546.53 503.32
  C 547.93 504.17 549.29 505.04 548.79 506.77
  A 1.68 1.68 0.0 0 1 546.30 507.75
  Z"
/>
<path fill="#ffffff" d="
  M 681.79 305.92
  Q 914.74 447.92 1147.51 590.21
  Q 1147.93 590.47 1147.54 590.76
  C 1145.41 592.40 1143.45 592.28 1141.10 590.84
  Q 908.68 448.92 676.56 307.20
  A 0.96 0.96 0.0 0 1 676.74 305.48
  Q 679.48 304.52 681.79 305.92
  Z"
/>
<path fill="#ffffff" d="
  M 648.78 340.25
  Q 647.94 339.46 646.87 338.96
  A 1.90 1.81 -9.5 0 1 646.37 338.62
  Q 638.18 330.78 629.30 323.68
  A 1.14 1.14 0.0 0 1 629.55 321.75
  L 639.79 317.23
  Q 640.28 317.02 640.69 317.36
  Q 658.03 331.57 673.13 348.11
  Q 678.21 353.67 684.73 362.77
  C 686.78 365.62 687.78 367.42 688.10 371.03
  Q 688.97 380.62 684.91 389.35
  Q 684.68 389.84 684.15 389.85
  Q 653.63 390.49 623.25 389.41
  C 602.74 388.68 582.17 389.00 561.67 389.00
  A 0.63 0.63 0.0 0 1 561.06 388.19
  L 563.90 378.57
  A 0.81 0.80 8.2 0 1 564.67 378.00
  L 678.26 378.04
  A 0.79 0.78 77.8 0 0 678.97 376.93
  Q 677.20 372.99 674.56 369.23
  Q 667.04 358.51 661.57 352.91
  Q 660.79 352.11 658.50 352.10
  Q 621.37 352.03 583.53 351.96
  A 0.64 0.63 -65.8 0 1 583.11 350.85
  C 586.68 347.64 592.93 341.15 598.00 341.14
  Q 623.25 341.11 648.51 340.93
  A 0.40 0.39 -23.5 0 0 648.78 340.25
  Z"
/>
<path fill="#ffffff" d="
  M 532.08 524.56
  L 208.23 326.80
  Q 207.96 326.64 208.13 326.39
  C 210.51 322.79 212.12 324.59 215.11 326.41
  Q 374.89 423.98 534.66 521.54
  Q 535.07 521.79 535.08 522.27
  Q 535.10 523.36 534.35 524.21
  Q 533.36 525.34 532.08 524.56
  Z"
/>
<path fill="#ffffff" d="
  M 1130.55 609.87
  C 981.91 519.10 833.45 428.55 685.04 337.82
  C 680.08 334.78 676.47 331.27 672.79 327.11
  A 0.59 0.58 84.9 0 1 673.53 326.22
  L 1132.74 606.61
  Q 1133.43 607.03 1133.07 607.75
  L 1132.25 609.38
  A 1.21 1.20 -60.9 0 1 1130.55 609.87
  Z"
/>
<path fill="#ffffff" d="
  M 168.32 327.09
  C 174.24 326.10 178.66 329.55 183.48 332.50
  Q 351.95 435.40 520.41 538.31
  C 522.45 539.56 524.39 539.98 524.05 542.90
  A 1.33 1.32 18.9 0 1 522.04 543.88
  L 168.18 327.81
  A 0.39 0.39 0.0 0 1 168.32 327.09
  Z"
/>
<path fill="#ffffff" d="
  M 134.30 331.10
  C 137.89 330.47 140.53 331.69 143.49 333.49
  Q 330.43 447.77 518.16 562.40
  A 1.11 1.11 0.0 0 1 518.59 563.80
  L 517.83 565.49
  Q 517.55 566.12 516.90 565.88
  Q 515.49 565.36 513.71 564.28
  Q 324.28 448.59 134.83 332.93
  Q 134.14 332.52 133.87 332.01
  A 0.62 0.62 0.0 0 1 134.30 331.10
  Z"
/>
<path fill="#ffffff" d="
  M 121.22 345.52
  Q 320.49 467.07 518.98 588.38
  C 520.99 589.61 522.17 591.08 521.98 593.39
  A 0.72 0.71 16.3 0 1 520.93 593.96
  Q 517.56 592.18 514.47 590.29
  Q 317.66 470.02 120.81 349.82
  C 119.18 348.83 117.85 347.16 119.79 345.61
  A 1.26 1.25 41.2 0 1 121.22 345.52
  Z"
/>
<path fill="#ffffff" d="
  M 508.57 612.07
  C 374.89 530.41 241.18 448.78 107.47 367.15
  Q 106.98 366.85 107.25 366.34
  L 108.29 364.36
  A 1.05 1.04 -60.5 0 1 109.76 363.95
  L 516.80 612.48
  A 0.75 0.75 0.0 0 1 516.53 613.86
  C 513.21 614.38 511.56 613.89 508.57 612.07
  Z"
/>
<path fill="#ffffff" d="
  M 1157.52 651.80
  Q 933.29 514.90 709.42 378.18
  C 707.12 376.78 706.27 375.03 706.12 372.50
  A 0.50 0.50 0.0 0 1 706.88 372.04
  Q 926.48 506.14 1146.20 640.29
  C 1150.82 643.11 1154.06 647.60 1157.85 651.38
  A 0.27 0.27 0.0 0 1 1157.52 651.80
  Z"
/>
<path fill="#ffffff" d="
  M 484.56 622.87
  C 358.82 546.05 233.15 469.55 107.75 392.72
  C 105.23 391.18 102.50 390.40 102.96 386.78
  A 0.92 0.92 0.0 0 1 104.35 386.11
  L 486.60 619.51
  Q 487.11 619.82 486.85 620.37
  L 485.86 622.49
  A 0.91 0.91 0.0 0 1 484.56 622.87
  Z"
/>
<path fill="#ffffff" d="
  M 654.75 510.99
  A 0.34 0.34 0.0 0 0 654.96 510.39
  Q 635.10 494.10 612.76 481.52
  Q 607.13 478.35 592.12 465.88
  C 576.54 452.92 564.42 435.79 560.17 415.73
  A 0.61 0.60 84.2 0 1 560.76 415.00
  L 665.50 414.99
  Q 666.22 414.99 665.77 415.56
  C 663.52 418.41 660.69 420.94 658.18 423.54
  Q 655.76 426.04 651.50 426.03
  Q 614.50 425.93 577.41 425.99
  A 0.31 0.31 0.0 0 0 577.25 426.56
  Q 585.93 431.90 595.45 436.05
  Q 620.41 446.96 634.74 451.81
  Q 636.47 452.40 638.66 450.66
  Q 648.75 442.65 658.88 434.70
  C 671.22 425.00 684.61 410.90 692.35 395.88
  C 693.09 394.45 693.79 391.79 695.25 390.14
  Q 695.75 389.58 695.80 390.32
  Q 696.58 400.99 695.71 405.25
  C 692.97 418.65 684.61 428.62 674.49 437.25
  Q 662.06 447.85 649.08 457.75
  A 0.46 0.46 0.0 0 0 649.18 458.53
  C 681.59 472.91 718.01 499.36 724.50 536.71
  C 728.76 561.24 721.62 586.94 706.76 606.77
  Q 694.25 623.45 677.05 636.13
  Q 651.70 654.83 617.03 668.21
  Q 551.40 693.56 480.73 700.07
  A 0.63 0.63 0.0 0 1 480.07 699.24
  L 501.92 633.75
  A 1.04 1.03 8.8 0 1 502.91 633.03
  Q 518.93 633.03 534.75 630.99
  C 568.27 626.66 601.49 618.78 632.24 604.47
  Q 640.04 600.85 645.77 596.78
  A 0.35 0.35 0.0 0 0 645.57 596.14
  Q 594.19 595.68 575.52 596.04
  C 570.85 596.13 569.98 594.87 567.07 591.24
  Q 564.93 588.58 563.22 585.64
  Q 562.87 585.05 563.55 585.05
  Q 621.76 584.87 657.74 585.06
  C 665.83 585.10 673.48 566.50 675.01 560.28
  A 1.05 1.04 6.9 0 0 673.99 558.99
  L 561.45 559.00
  A 0.57 0.57 0.0 0 1 560.94 558.18
  L 565.28 549.33
  A 2.39 2.37 12.9 0 1 567.42 548.00
  L 674.26 548.01
  A 0.78 0.78 0.0 0 0 675.04 547.21
  C 674.83 538.49 670.68 530.00 666.01 522.77
  Q 665.73 522.35 665.24 522.22
  Q 663.66 521.83 662.00 521.84
  Q 626.62 522.02 591.44 522.01
  A 0.49 0.49 0.0 0 1 591.12 521.15
  Q 596.42 516.51 601.97 511.94
  Q 603.29 510.85 607.75 510.89
  Q 631.34 511.09 654.75 510.99
  Z"
/>
<path fill="#ffffff" d="
  M 1173.56 686.75
  Q 1171.26 685.70 1169.89 684.86
  Q 941.31 545.22 712.68 405.65
  C 710.56 404.36 708.79 402.97 711.20 400.67
  Q 711.53 400.35 711.92 400.59
  L 1173.51 682.43
  Q 1174.03 682.75 1174.02 683.36
  L 1173.99 686.47
  Q 1173.99 686.94 1173.56 686.75
  Z"
/>
<path fill="#ffffff" d="
  M 98.46 408.24
  Q 99.67 408.78 99.98 408.97
  Q 286.61 522.87 473.33 636.60
  Q 476.71 638.66 478.96 640.45
  A 1.87 1.86 -18.8 0 1 477.35 643.72
  Q 476.75 643.57 475.49 642.80
  Q 286.99 527.68 98.48 412.58
  Q 97.93 412.24 97.93 411.59
  L 97.96 408.56
  Q 97.97 408.02 98.46 408.24
  Z"
/>
<path fill="#ffffff" d="
  M 705.33 422.03
  L 1169.14 705.23
  Q 1169.60 705.52 1169.47 706.04
  L 1168.84 708.48
  A 0.77 0.77 0.0 0 1 1167.69 708.94
  Q 936.35 567.68 705.36 426.65
  Q 704.81 426.31 703.51 425.01
  A 0.80 0.79 36.1 0 1 703.36 424.09
  L 704.25 422.34
  A 0.77 0.76 28.9 0 1 705.33 422.03
  Z"
/>
<rect fill="#ffffff" x="-280.31" y="-1.96" transform="translate(929.76,586.83) rotate(31.4)" width="560.62" height="3.92" rx="1.94"/>
<path fill="#ffffff" d="
  M 468.79 664.16
  C 355.86 595.20 242.95 526.17 129.96 457.29
  Q 122.88 452.97 118.00 449.64
  C 114.60 447.31 112.32 444.23 109.84 441.13
  Q 108.70 439.69 110.27 440.65
  L 472.14 661.61
  A 1.03 1.02 -67.4 0 1 472.60 662.73
  Q 472.11 664.73 470.92 664.92
  Q 470.22 665.03 468.79 664.16
  Z"
/>
<path fill="#ffffff" d="
  M 1152.69 746.06
  A 0.33 0.33 0.0 0 1 1152.68 746.64
  C 1150.49 747.81 1148.66 748.25 1146.35 746.83
  Q 936.50 618.70 726.65 490.58
  C 720.72 486.96 716.73 483.88 712.74 478.94
  A 0.50 0.49 -7.3 0 1 713.33 478.18
  Q 714.18 478.56 715.16 479.16
  Q 933.00 612.01 1152.69 746.06
  Z"
/>
<rect fill="#ffffff" x="-193.00" y="-1.96" transform="translate(300.21,584.39) rotate(31.4)" width="386.00" height="3.92" rx="1.80"/>
<path fill="#ffffff" d="
  M 1095.43 486.49
  Q 1094.82 486.11 1095.54 486.03
  C 1103.23 485.10 1109.20 491.09 1113.78 496.47
  Q 1114.11 496.85 1114.19 497.29
  A 0.39 0.39 0.0 0 1 1113.60 497.69
  L 1095.43 486.49
  Z"
/>
<path fill="#ffffff" d="
  M 532.82 570.91
  C 532.51 552.51 540.02 537.58 552.09 524.08
  Q 569.47 504.65 589.27 488.58
  A 2.66 2.65 -47.2 0 1 592.46 488.46
  L 600.44 493.98
  A 0.78 0.78 0.0 0 1 600.48 495.24
  Q 580.07 511.11 562.87 529.87
  C 551.30 542.47 541.67 559.44 544.71 577.29
  C 546.68 588.93 554.60 598.33 562.10 606.69
  A 0.61 0.60 64.4 0 1 561.75 607.69
  L 549.76 609.72
  Q 549.32 609.80 548.99 609.48
  Q 533.20 593.91 532.82 570.91
  Z"
/>
<path fill="#ffffff" d="
  M 456.91 707.84
  L 105.29 493.13
  Q 104.66 492.75 105.25 492.31
  Q 108.04 490.22 110.67 491.82
  Q 283.43 597.32 456.17 702.86
  Q 458.73 704.43 457.88 707.45
  A 0.66 0.65 -66.7 0 1 456.91 707.84
  Z"
/>
<path fill="#ffffff" d="
  M 1070.67 492.63
  Q 1098.08 509.03 1125.33 525.72
  Q 1128.62 527.73 1132.45 531.11
  Q 1140.16 537.93 1149.79 543.43
  Q 1151.54 544.43 1152.78 546.49
  A 0.25 0.25 0.0 0 1 1152.44 546.83
  L 1065.04 493.47
  A 0.74 0.74 0.0 0 1 1065.18 492.14
  Q 1068.14 491.11 1070.67 492.63
  Z"
/>
<path fill="#ffffff" d="
  M 94.38 507.34
  Q 390.00 687.85 685.62 868.34
  Q 686.04 868.60 686.03 869.09
  L 686.01 872.22
  A 0.55 0.54 16.2 0 1 685.18 872.67
  L 90.42 509.52
  Q 89.95 509.23 90.11 508.70
  Q 90.61 507.00 92.03 506.70
  Q 93.00 506.50 94.38 507.34
  Z"
/>
<path fill="#ffffff" d="
  M 740.85 520.45
  Q 742.83 521.35 744.24 522.21
  Q 939.86 641.62 1135.43 761.09
  Q 1138.55 762.99 1138.00 766.20
  Q 1137.85 767.10 1137.07 766.62
  Q 941.59 647.27 746.37 528.08
  C 743.31 526.21 740.54 525.04 739.88 521.19
  Q 739.66 519.90 740.85 520.45
  Z"
/>
<path fill="#ffffff" d="
  M 461.47 760.27
  Q 455.31 758.04 449.71 754.62
  Q 268.43 643.69 87.06 532.92
  C 84.87 531.59 84.35 530.15 85.07 527.76
  Q 85.23 527.22 85.72 527.52
  L 471.91 763.32
  A 0.22 0.21 69.1 0 1 471.74 763.71
  Q 466.64 762.14 461.47 760.27
  Z"
/>
<path fill="#ffffff" d="
  M 1130.00 787.58
  Q 1116.49 779.76 1103.33 771.71
  Q 924.94 662.56 746.43 553.58
  Q 744.00 552.09 744.80 548.44
  Q 744.88 548.04 745.24 548.25
  L 1131.63 784.17
  Q 1132.25 784.55 1131.94 785.21
  L 1130.97 787.28
  A 0.69 0.69 0.0 0 1 1130.00 787.58
  Z"
/>
<path fill="#ffffff" d="
  M 384.86 740.24
  C 282.68 677.83 180.52 615.45 78.31 553.05
  A 0.49 0.49 0.0 0 1 78.28 552.23
  C 80.67 550.52 82.82 551.21 85.30 552.72
  Q 240.42 647.44 395.81 742.33
  A 0.30 0.30 0.0 0 1 395.71 742.88
  C 391.50 743.70 388.71 742.59 384.86 740.24
  Z"
/>
<path fill="#ffffff" d="
  M 65.55 566.14
  L 367.55 750.53
  Q 368.04 750.83 367.58 751.18
  L 365.15 752.99
  Q 364.65 753.36 364.12 753.03
  Q 215.84 662.50 67.57 571.95
  C 65.42 570.64 63.06 569.76 64.12 566.65
  Q 64.52 565.51 65.55 566.14
  Z"
/>
<path fill="#ffffff" d="
  M 743.96 572.93
  L 1110.35 796.64
  A 0.93 0.93 0.0 0 1 1110.44 798.16
  Q 1108.12 800.00 1105.14 798.18
  Q 923.81 687.36 742.46 576.57
  Q 741.94 576.25 741.93 575.65
  L 741.90 574.12
  A 1.36 1.36 0.0 0 1 743.96 572.93
  Z"
/>
<path fill="#ffffff" d="
  M 348.70 765.74
  L 347.21 767.34
  A 0.89 0.89 0.0 0 1 346.09 767.49
  L 64.39 595.48
  A 0.89 0.89 0.0 0 1 63.96 594.77
  L 63.82 592.16
  A 0.89 0.89 0.0 0 1 65.17 591.35
  L 348.51 764.37
  A 0.89 0.89 0.0 0 1 348.70 765.74
  Z"
/>
<path fill="#ffffff" d="
  M 737.06 594.17
  L 1093.24 811.66
  A 1.45 1.45 0.0 0 1 1093.78 813.56
  C 1093.02 815.09 1091.62 815.28 1090.17 814.40
  Q 914.38 707.02 738.56 599.68
  C 737.05 598.75 733.38 596.93 735.23 594.51
  A 1.40 1.39 34.4 0 1 737.06 594.17
  Z"
/>
<rect fill="#ffffff" x="-208.93" y="-1.96" transform="translate(902.73,723.10) rotate(31.4)" width="417.86" height="3.92" rx="1.28"/>
<path fill="#ffffff" d="
  M 333.45 780.53
  C 336.84 782.60 339.15 783.20 337.80 787.35
  Q 337.65 787.80 337.25 787.55
  L 60.14 618.35
  A 1.79 1.79 0.0 0 1 60.88 615.04
  C 62.43 614.87 63.88 616.00 65.22 616.82
  Q 199.25 698.81 333.45 780.53
  Z"
/>
<path fill="#ffffff" d="
  M 712.58 630.17
  L 1050.55 836.53
  Q 1050.99 836.80 1050.48 836.89
  C 1046.49 837.57 1043.85 837.03 1040.25 834.83
  Q 876.16 734.63 712.13 634.34
  Q 708.68 632.23 710.94 630.30
  A 1.40 1.40 0.0 0 1 712.58 630.17
  Z"
/>
<path fill="#ffffff" d="
  M 53.30 635.07
  Q 198.46 723.61 343.00 811.96
  C 344.69 813.00 345.89 814.56 344.80 816.45
  Q 344.30 817.32 343.44 816.80
  Q 199.47 728.90 55.96 641.25
  C 53.27 639.60 51.20 638.75 52.03 635.59
  A 0.86 0.85 -67.1 0 1 53.30 635.07
  Z"
/>
<path fill="#ffffff" d="
  M 1004.44 833.49
  Q 1005.00 833.83 1005.55 834.31
  Q 1005.92 834.63 1005.48 834.84
  L 1002.16 836.41
  Q 1001.59 836.69 1001.04 836.36
  L 693.16 648.36
  Q 692.76 648.12 692.98 647.71
  Q 694.63 644.63 697.88 646.62
  Q 851.03 740.26 1004.44 833.49
  Z"
/>
<path fill="#ffffff" d="
  M 944.16 822.94
  Q 932.98 820.26 927.52 816.93
  Q 806.00 742.72 684.50 668.48
  Q 679.65 665.52 674.53 662.31
  A 1.29 1.29 0.0 0 1 674.44 660.18
  Q 676.23 658.83 678.52 660.23
  Q 805.62 737.91 932.75 815.53
  Q 941.37 820.79 944.33 822.54
  A 0.22 0.22 0.0 0 1 944.16 822.94
  Z"
/>
<path fill="#ffffff" d="
  M 652.55 673.11
  C 654.45 672.04 655.60 671.79 657.61 673.02
  Q 738.17 722.13 818.84 771.48
  A 0.21 0.21 0.0 0 1 818.77 771.87
  C 814.86 772.71 812.36 772.07 808.81 769.90
  Q 733.04 723.65 657.18 677.56
  Q 654.47 675.91 652.44 674.00
  Q 651.89 673.49 652.55 673.11
  Z"
/>
<path fill="#ffffff" d="
  M 80.52 677.13
  L 339.22 835.09
  A 1.55 1.55 0.0 0 1 338.32 837.96
  Q 336.05 837.81 334.26 836.71
  Q 141.42 718.86 82.68 683.06
  Q 80.18 681.54 78.57 680.21
  Q 78.12 679.83 78.35 679.28
  L 79.05 677.60
  A 1.02 1.02 0.0 0 1 80.52 677.13
  Z"
/>
<path fill="#ffffff" d="
  M 628.46 684.27
  C 630.52 682.28 633.25 683.46 635.55 684.87
  Q 707.22 728.76 778.77 772.44
  A 0.75 0.74 52.6 0 1 778.59 773.79
  C 775.80 774.59 773.63 773.90 771.04 772.31
  Q 700.16 729.03 628.58 685.32
  Q 627.84 684.87 628.46 684.27
  Z"
/>
<path fill="#ffffff" d="
  M 63.51 692.21
  L 291.43 831.37
  Q 291.70 831.54 291.42 831.69
  Q 287.74 833.71 284.83 831.94
  Q 173.22 763.80 61.63 695.63
  Q 61.14 695.33 61.42 694.83
  L 62.79 692.39
  A 0.52 0.51 30.4 0 1 63.51 692.21
  Z"
/>
<path fill="#ffffff" d="
  M 718.02 765.17
  Q 665.30 733.44 612.91 701.14
  C 610.07 699.39 605.80 697.09 602.43 694.54
  Q 601.99 694.20 602.44 693.88
  Q 605.14 691.90 607.75 693.49
  Q 666.90 729.60 726.85 766.19
  Q 727.82 766.78 726.70 766.99
  C 723.50 767.59 720.95 766.93 718.02 765.17
  Z"
/>
<path fill="#ffffff" d="
  M 581.06 702.82
  Q 638.09 737.30 695.11 772.33
  A 1.25 1.24 40.0 0 1 695.29 774.32
  L 694.00 775.48
  Q 693.52 775.92 692.96 775.57
  L 574.37 703.14
  Q 573.75 702.76 574.36 702.35
  C 576.76 700.79 578.64 701.35 581.06 702.82
  Z"
/>
<path fill="#ffffff" d="
  M 686.48 796.75
  Q 682.83 794.92 680.04 793.21
  Q 613.97 752.76 547.83 712.41
  C 546.81 711.79 545.59 711.36 544.86 710.21
  A 0.67 0.66 67.6 0 1 545.28 709.20
  C 547.91 708.65 549.60 708.91 551.99 710.37
  Q 619.24 751.42 686.50 792.48
  A 1.17 1.17 0.0 0 1 687.06 793.53
  L 686.95 796.47
  A 0.33 0.33 0.0 0 1 686.48 796.75
  Z"
/>
<path fill="#ffffff" d="
  M 263.84 844.51
  Q 160.95 781.92 58.46 719.12
  C 56.11 717.68 55.16 716.44 56.05 713.69
  Q 56.21 713.21 56.64 713.47
  Q 160.42 776.83 264.18 840.21
  Q 265.57 841.06 265.79 841.83
  Q 266.15 843.04 264.78 844.39
  A 0.77 0.76 -51.7 0 1 263.84 844.51
  Z"
/>
<path fill="#ffffff" d="
  M 525.60 719.63
  Q 604.03 767.62 682.52 815.53
  C 684.62 816.82 685.48 817.82 684.95 820.28
  A 0.84 0.83 -68.6 0 1 683.70 820.83
  L 512.99 716.61
  Q 511.28 715.56 513.22 715.07
  C 517.40 714.00 522.17 717.54 525.60 719.63
  Z"
/>
<path fill="#ffffff" d="
  M 679.63 839.25
  C 682.18 840.81 684.11 841.42 682.83 845.24
  Q 682.68 845.68 682.28 845.44
  L 478.01 720.70
  Q 476.46 719.76 478.18 719.16
  C 480.69 718.29 483.27 719.36 485.66 720.81
  Q 582.67 779.98 679.63 839.25
  Z"
/>
<path fill="#ffffff" d="
  M 87.20 757.57
  A 0.18 0.18 0.0 0 1 87.26 757.82
  L 87.24 757.85
  A 9.93 1.28 31.2 0 1 78.08 753.80
  L 77.80 753.64
  A 9.93 1.28 31.2 0 1 69.97 747.40
  L 69.99 747.37
  A 0.18 0.18 0.0 0 1 70.24 747.30
  L 87.20 757.57
  Z"
/>
<path fill="#ffffff" d="
  M 111.04 776.71
  C 108.37 775.08 108.40 771.87 106.27 769.55
  A 0.13 0.13 0.0 0 1 106.44 769.35
  Q 178.08 813.10 249.88 856.83
  Q 251.41 857.76 252.66 859.04
  Q 253.09 859.48 252.66 859.91
  L 250.97 861.59
  A 0.65 0.65 0.0 0 1 250.17 861.68
  Q 180.58 819.23 111.04 776.71
  Z"
/>
<path fill="#ffffff" d="
  M 696.32 903.69
  Q 696.65 903.96 696.68 904.41
  Q 696.72 905.18 696.07 904.78
  L 513.24 793.14
  A 1.56 1.45 85.0 0 1 512.81 792.75
  L 508.42 786.56
  A 0.42 0.42 0.0 0 1 508.98 785.95
  Q 601.71 842.56 693.72 898.77
  Q 695.17 899.65 696.32 903.69
  Z"
/>
<path fill="#ffffff" d="
  M 127.44 810.83
  Q 118.42 807.72 110.86 801.84
  C 108.86 800.29 108.51 798.99 108.56 796.57
  Q 108.57 796.13 108.95 796.36
  L 232.72 871.94
  A 0.52 0.52 0.0 0 1 232.55 872.89
  C 229.65 873.46 227.15 873.06 224.48 871.44
  Q 182.17 845.67 139.90 819.84
  C 135.95 817.43 131.14 812.11 127.44 810.83
  Z"
/>
<path fill="#ffffff" d="
  M 710.65 938.79
  Q 706.94 937.08 703.87 935.20
  Q 610.70 878.12 517.43 821.18
  C 515.09 819.75 514.19 818.34 515.09 815.71
  Q 515.25 815.25 515.66 815.50
  Q 611.25 873.86 706.83 932.23
  C 709.51 933.87 710.69 935.61 710.89 938.63
  A 0.17 0.17 0.0 0 1 710.65 938.79
  Z"
/>
<path fill="#ffffff" d="
  M 957.99 830.96
  L 979.21 843.89
  A 0.79 0.79 0.0 0 1 978.64 845.33
  Q 974.22 844.43 970.64 842.85
  C 965.57 840.62 961.02 835.96 957.34 831.72
  A 0.51 0.50 -4.6 0 1 957.99 830.96
  Z"
/>
<path fill="#ffffff" d="
  M 169.03 858.24
  A 0.15 0.15 0.0 0 1 169.08 858.45
  L 169.06 858.49
  A 4.42 4.02 31.3 0 1 163.19 859.63
  L 143.20 847.47
  A 4.42 4.02 31.3 0 1 141.51 841.74
  L 141.53 841.70
  A 0.15 0.15 0.0 0 1 141.74 841.65
  L 169.03 858.24
  Z"
/>
<path fill="#ffffff" d="
  M 517.68 842.25
  Q 614.15 901.05 709.93 959.59
  Q 713.06 961.50 710.91 964.23
  Q 710.62 964.59 710.23 964.35
  Q 617.45 907.73 524.67 851.09
  C 520.73 848.68 518.33 847.55 516.93 842.82
  A 0.51 0.50 7.5 0 1 517.68 842.25
  Z"
/>
<path fill="#ffffff" d="
  M 523.37 871.13
  L 694.06 975.37
  Q 695.41 976.20 693.93 976.77
  Q 690.80 977.99 687.23 975.82
  Q 613.72 930.94 540.18 886.12
  Q 531.92 881.10 523.79 875.87
  C 522.14 874.81 521.42 873.48 522.08 871.59
  A 0.88 0.88 0.0 0 1 523.37 871.13
  Z"
/>
<path fill="#ffffff" d="
  M 517.97 893.30
  L 657.40 978.45
  Q 657.83 978.71 657.34 978.82
  Q 652.28 979.93 648.42 977.57
  Q 582.61 937.34 516.77 897.17
  Q 516.26 896.86 516.41 896.29
  L 517.04 893.69
  Q 517.24 892.86 517.97 893.30
  Z"
/>
<path fill="#ffffff" d="
  M 510.84 914.40
  L 610.52 975.28
  Q 611.27 975.74 610.41 975.91
  C 606.83 976.65 604.14 976.00 600.87 974.01
  Q 556.94 947.14 512.99 920.32
  Q 511.05 919.13 509.24 917.73
  A 0.82 0.82 0.0 0 1 509.02 916.70
  L 510.10 914.61
  Q 510.36 914.11 510.84 914.40
  Z"
/>
<path fill="#ffffff" d="
  M 499.70 936.25
  L 500.41 934.91
  A 1.15 1.15 0.0 0 1 502.02 934.47
  L 568.79 975.24
  A 0.34 0.34 0.0 0 1 568.68 975.87
  C 564.74 976.68 562.11 975.75 558.51 973.56
  Q 528.85 955.50 500.16 937.92
  Q 499.15 937.30 499.70 936.25
  Z"
/>
<path fill="#ffffff" d="
  M 497.20 957.01
  L 531.53 978.00
  Q 532.44 978.56 531.41 978.82
  C 527.96 979.70 525.30 978.78 522.12 976.85
  Q 510.70 969.89 499.35 962.85
  C 497.24 961.54 495.69 960.07 495.95 957.62
  A 0.82 0.82 0.0 0 1 497.20 957.01
  Z"
/>
</svg>
